G04 #@! TF.FileFunction,Copper,L2,Bot,Signal*
%FSLAX46Y46*%
G04 Gerber Fmt 4.6, Leading zero omitted, Abs format (unit mm)*
G04 Created by KiCad (PCBNEW 4.0.2-stable) date 2016-12-17 4:16:28 PM*
%MOMM*%
G01*
G04 APERTURE LIST*
%ADD10C,0.200000*%
%ADD11R,1.400000X1.400000*%
%ADD12C,1.400000*%
%ADD13R,1.500000X1.500000*%
%ADD14C,1.500000*%
%ADD15C,1.998980*%
%ADD16O,2.499360X1.744980*%
%ADD17O,2.499360X1.747520*%
%ADD18C,4.000500*%
%ADD19R,1.998980X1.998980*%
%ADD20O,2.700020X1.800860*%
%ADD21C,4.572000*%
%ADD22O,1.998980X1.998980*%
%ADD23C,3.302000*%
%ADD24C,1.699260*%
%ADD25R,1.699260X1.699260*%
%ADD26C,1.750060*%
%ADD27C,0.800000*%
%ADD28C,0.350000*%
%ADD29C,0.203200*%
G04 APERTURE END LIST*
D10*
D11*
X135250000Y-135750000D03*
D12*
X135250000Y-130750000D03*
D11*
X135000000Y-144000000D03*
D12*
X137000000Y-144000000D03*
D11*
X155000000Y-144000000D03*
D12*
X153000000Y-144000000D03*
D13*
X144000000Y-88500000D03*
D14*
X144000000Y-83500000D03*
D13*
X158000000Y-83500000D03*
D14*
X158000000Y-88500000D03*
D11*
X178000000Y-129000000D03*
D12*
X178000000Y-124000000D03*
D11*
X177000000Y-101000000D03*
D12*
X177000000Y-106000000D03*
D13*
X106750000Y-90000000D03*
D14*
X106750000Y-85000000D03*
D13*
X106750000Y-138000000D03*
D14*
X106750000Y-133000000D03*
D11*
X134000000Y-90000000D03*
D12*
X134000000Y-95000000D03*
D15*
X129750000Y-113000000D03*
X129750000Y-102840000D03*
X167000000Y-100900000D03*
X167000000Y-111060000D03*
X170500000Y-111000000D03*
X170500000Y-100840000D03*
X167000000Y-125200000D03*
X167000000Y-115040000D03*
X170750000Y-115000000D03*
X170750000Y-125160000D03*
X178000000Y-132000000D03*
X167840000Y-132000000D03*
X166750000Y-97500000D03*
X176910000Y-97500000D03*
D16*
X117500000Y-97540000D03*
D17*
X117500000Y-95000000D03*
X117500000Y-92460000D03*
D18*
X120992500Y-107700000D03*
X120992500Y-82300000D03*
D16*
X117750000Y-135540000D03*
D17*
X117750000Y-133000000D03*
X117750000Y-130460000D03*
D18*
X121242500Y-145700000D03*
X121242500Y-120300000D03*
D15*
X130497460Y-128090000D03*
D19*
X130497460Y-138250000D03*
D15*
X133997460Y-76840000D03*
D19*
X133997460Y-87000000D03*
D15*
X127002540Y-138160000D03*
D19*
X127002540Y-128000000D03*
D15*
X126997460Y-89840000D03*
D19*
X126997460Y-100000000D03*
D15*
X111002540Y-122160000D03*
D19*
X111002540Y-112000000D03*
D15*
X111002540Y-109160000D03*
D19*
X111002540Y-99000000D03*
D15*
X107002540Y-122160000D03*
D19*
X107002540Y-112000000D03*
D15*
X107002540Y-109160000D03*
D19*
X107002540Y-99000000D03*
D20*
X141920000Y-108501160D03*
X147000000Y-110200420D03*
X141920000Y-111899680D03*
X147000000Y-113598940D03*
X141920000Y-115300740D03*
X147000000Y-117000000D03*
X141920000Y-118699260D03*
X147000000Y-120401060D03*
X141920000Y-122100320D03*
X147000000Y-123799580D03*
X141920000Y-125498840D03*
D21*
X152387340Y-129700000D03*
X152387340Y-104300000D03*
D22*
X141190000Y-144000000D03*
D19*
X148810000Y-144000000D03*
D22*
X146270000Y-144000000D03*
X143730000Y-144000000D03*
X178000000Y-118810000D03*
D19*
X178000000Y-111190000D03*
D22*
X178000000Y-113730000D03*
X178000000Y-116270000D03*
X99000000Y-110190000D03*
D19*
X99000000Y-117810000D03*
D22*
X99000000Y-115270000D03*
X99000000Y-112730000D03*
X154810000Y-75000000D03*
D19*
X147190000Y-75000000D03*
D22*
X149730000Y-75000000D03*
X152270000Y-75000000D03*
D23*
X176000000Y-77000000D03*
X176000000Y-146000000D03*
X100000000Y-77000000D03*
X100000000Y-146000000D03*
D11*
X132250000Y-123750000D03*
D12*
X130250000Y-123750000D03*
D24*
X133247460Y-102839480D03*
D25*
X133247460Y-112999480D03*
D15*
X136500000Y-102750000D03*
X136500000Y-112910000D03*
X136500000Y-126250000D03*
X136500000Y-116090000D03*
D26*
X132135000Y-115595000D03*
X129595000Y-117500000D03*
X132135000Y-119405000D03*
D11*
X103250000Y-98750000D03*
D12*
X98250000Y-98750000D03*
D11*
X98250000Y-125500000D03*
D12*
X103250000Y-125500000D03*
D27*
X135000000Y-144000000D02*
X135000000Y-142500000D01*
X135000000Y-142500000D02*
X138750000Y-138750000D01*
X138750000Y-138750000D02*
X138750000Y-119719250D01*
X139769990Y-118699260D02*
X141920000Y-118699260D01*
X138750000Y-119719250D02*
X139769990Y-118699260D01*
X141190000Y-144000000D02*
X137000000Y-144000000D01*
X141920000Y-125498840D02*
X141920000Y-128320000D01*
X141920000Y-128320000D02*
X155000000Y-141400000D01*
X155000000Y-141400000D02*
X155000000Y-144000000D01*
X148810000Y-144000000D02*
X153000000Y-144000000D01*
X126997460Y-89840000D02*
X126997460Y-93247460D01*
X126997460Y-93247460D02*
X136500000Y-102750000D01*
X136500000Y-102750000D02*
X136500000Y-108250000D01*
X136500000Y-108250000D02*
X140149680Y-111899680D01*
X140149680Y-111899680D02*
X141920000Y-111899680D01*
D28*
X132250000Y-123750000D02*
X133750000Y-123750000D01*
X133750000Y-123750000D02*
X136500000Y-126250000D01*
D27*
X133997460Y-87000000D02*
X133997460Y-89997460D01*
X126997460Y-89840000D02*
X133840000Y-89840000D01*
X138700000Y-88500000D02*
X137200000Y-90000000D01*
X137200000Y-90000000D02*
X134000000Y-90000000D01*
X144000000Y-88500000D02*
X138700000Y-88500000D01*
X133840000Y-89840000D02*
X134000000Y-90000000D01*
X133997460Y-89997460D02*
X134000000Y-90000000D01*
X147190000Y-85310000D02*
X144749999Y-87750001D01*
X144749999Y-87750001D02*
X144000000Y-88500000D01*
X141920000Y-111899680D02*
X142369580Y-111899680D01*
X125360000Y-89840000D02*
X122740000Y-92460000D01*
X122740000Y-92460000D02*
X117500000Y-92460000D01*
X126997460Y-89840000D02*
X125360000Y-89840000D01*
X147190000Y-75000000D02*
X147190000Y-85310000D01*
X130497460Y-128090000D02*
X132590000Y-128090000D01*
X132590000Y-128090000D02*
X135250000Y-130750000D01*
X127002540Y-128000000D02*
X130407460Y-128000000D01*
X130407460Y-128000000D02*
X130497460Y-128090000D01*
X154810000Y-75000000D02*
X154810000Y-85310000D01*
X154810000Y-85310000D02*
X158000000Y-88500000D01*
X123509680Y-128000000D02*
X127002540Y-128000000D01*
X117750000Y-130460000D02*
X121049680Y-130460000D01*
X121049680Y-130460000D02*
X123509680Y-128000000D01*
X178000000Y-129000000D02*
X176500000Y-129000000D01*
X176500000Y-129000000D02*
X172722000Y-125222000D01*
X172722000Y-125222000D02*
X170812000Y-125222000D01*
X170812000Y-125222000D02*
X170750000Y-125160000D01*
X177000000Y-101000000D02*
X177038000Y-100962000D01*
X177038000Y-100962000D02*
X177038000Y-97628000D01*
X177038000Y-97628000D02*
X176910000Y-97500000D01*
X103393050Y-110190000D02*
X99000000Y-110190000D01*
X105203050Y-112000000D02*
X103393050Y-110190000D01*
X107002540Y-112000000D02*
X105203050Y-112000000D01*
X107002540Y-112000000D02*
X107002540Y-109160000D01*
X106992030Y-117810000D02*
X99000000Y-117810000D01*
X111002540Y-113799490D02*
X106992030Y-117810000D01*
X111002540Y-112000000D02*
X111002540Y-113799490D01*
X111002540Y-109160000D02*
X111002540Y-112000000D01*
X172810510Y-107800000D02*
X167000000Y-107800000D01*
X167000000Y-107800000D02*
X154948950Y-107800000D01*
X167000000Y-100900000D02*
X167000000Y-107800000D01*
X178000000Y-111190000D02*
X176200510Y-111190000D01*
X176200510Y-111190000D02*
X172810510Y-107800000D01*
X154948950Y-107800000D02*
X149150010Y-113598940D01*
X149150010Y-113598940D02*
X147000000Y-113598940D01*
X167000000Y-100900000D02*
X167005000Y-100905000D01*
X166750000Y-97500000D02*
X166878000Y-97628000D01*
X166878000Y-97628000D02*
X166878000Y-100778000D01*
X166878000Y-100778000D02*
X167000000Y-100900000D01*
X167000000Y-111060000D02*
X166940000Y-111000000D01*
X166940000Y-111000000D02*
X161600000Y-111000000D01*
X161600000Y-111000000D02*
X152198940Y-120401060D01*
X152198940Y-120401060D02*
X147000000Y-120401060D01*
X170500000Y-111000000D02*
X167060000Y-111000000D01*
X167060000Y-111000000D02*
X167000000Y-111060000D01*
X147000000Y-123799580D02*
X157299580Y-123799580D01*
X157299580Y-123799580D02*
X158750000Y-125250000D01*
X158750000Y-125250000D02*
X166950000Y-125250000D01*
X166950000Y-125250000D02*
X167000000Y-125200000D01*
X167000000Y-125200000D02*
X167386000Y-125586000D01*
X167386000Y-125586000D02*
X167386000Y-131546000D01*
X167386000Y-131546000D02*
X167840000Y-132000000D01*
D28*
X138160000Y-116090000D02*
X138949260Y-115300740D01*
X138949260Y-115300740D02*
X141920000Y-115300740D01*
X136500000Y-116090000D02*
X138160000Y-116090000D01*
X132135000Y-119405000D02*
X133845000Y-119405000D01*
X133845000Y-119405000D02*
X136500000Y-116750000D01*
X136500000Y-116750000D02*
X136500000Y-116090000D01*
X130250000Y-123750000D02*
X130250000Y-121290000D01*
X130250000Y-121290000D02*
X132135000Y-119405000D01*
X133247460Y-112999480D02*
X133247460Y-114482540D01*
X133247460Y-114482540D02*
X132135000Y-115595000D01*
X136500000Y-112910000D02*
X133336940Y-112910000D01*
X133336940Y-112910000D02*
X133247460Y-112999480D01*
X129750000Y-113000000D02*
X129750000Y-117345000D01*
X129750000Y-117345000D02*
X129595000Y-117500000D01*
D27*
X103250000Y-98750000D02*
X106752540Y-98750000D01*
X106752540Y-98750000D02*
X107002540Y-99000000D01*
X117500000Y-97540000D02*
X115210000Y-97540000D01*
X115210000Y-97540000D02*
X113750000Y-99000000D01*
X113750000Y-99000000D02*
X111002540Y-99000000D01*
X107002540Y-99000000D02*
X107002540Y-90252540D01*
X107002540Y-90252540D02*
X106750000Y-90000000D01*
X123509680Y-100000000D02*
X126997460Y-100000000D01*
X117500000Y-97540000D02*
X121049680Y-97540000D01*
X121049680Y-97540000D02*
X123509680Y-100000000D01*
X107002540Y-99000000D02*
X111002540Y-99000000D01*
X107002540Y-122160000D02*
X105090000Y-122160000D01*
X105090000Y-122160000D02*
X103250000Y-124000000D01*
X103250000Y-124000000D02*
X103250000Y-125500000D01*
X117750000Y-133000000D02*
X106750000Y-133000000D01*
X106750000Y-133000000D02*
X106750000Y-122412540D01*
X106750000Y-122412540D02*
X107002540Y-122160000D01*
X107002540Y-122160000D02*
X111002540Y-122160000D01*
X117750000Y-133000000D02*
X121842540Y-133000000D01*
X121842540Y-133000000D02*
X127002540Y-138160000D01*
D29*
G36*
X181569400Y-151569400D02*
X94430600Y-151569400D01*
X94430600Y-146724350D01*
X96341766Y-146724350D01*
X96897429Y-148069157D01*
X97925431Y-149098955D01*
X99269266Y-149656964D01*
X100724350Y-149658234D01*
X102069157Y-149102571D01*
X103098955Y-148074569D01*
X103656964Y-146730734D01*
X103657456Y-146166552D01*
X118886242Y-146166552D01*
X119244143Y-147032739D01*
X119906276Y-147696028D01*
X120771837Y-148055440D01*
X121709052Y-148056258D01*
X122575239Y-147698357D01*
X123238528Y-147036224D01*
X123368029Y-146724350D01*
X172341766Y-146724350D01*
X172897429Y-148069157D01*
X173925431Y-149098955D01*
X175269266Y-149656964D01*
X176724350Y-149658234D01*
X178069157Y-149102571D01*
X179098955Y-148074569D01*
X179656964Y-146730734D01*
X179658234Y-145275650D01*
X179102571Y-143930843D01*
X178074569Y-142901045D01*
X176730734Y-142343036D01*
X175275650Y-142341766D01*
X173930843Y-142897429D01*
X172901045Y-143925431D01*
X172343036Y-145269266D01*
X172341766Y-146724350D01*
X123368029Y-146724350D01*
X123597940Y-146170663D01*
X123598758Y-145233448D01*
X123240857Y-144367261D01*
X122578724Y-143703972D01*
X121713163Y-143344560D01*
X120775948Y-143343742D01*
X119909761Y-143701643D01*
X119246472Y-144363776D01*
X118887060Y-145229337D01*
X118886242Y-146166552D01*
X103657456Y-146166552D01*
X103658234Y-145275650D01*
X103102571Y-143930843D01*
X102472829Y-143300000D01*
X133937434Y-143300000D01*
X133937434Y-144700000D01*
X133962230Y-144831777D01*
X134040110Y-144952807D01*
X134158942Y-145034001D01*
X134300000Y-145062566D01*
X135700000Y-145062566D01*
X135831777Y-145037770D01*
X135952807Y-144959890D01*
X136034001Y-144841058D01*
X136062566Y-144700000D01*
X136062566Y-144495476D01*
X136104584Y-144597168D01*
X136401270Y-144894372D01*
X136789107Y-145055416D01*
X137209051Y-145055782D01*
X137597168Y-144895416D01*
X137737228Y-144755600D01*
X140069891Y-144755600D01*
X140205259Y-144958193D01*
X140644882Y-145251940D01*
X141163452Y-145355090D01*
X141216548Y-145355090D01*
X141735118Y-145251940D01*
X142174741Y-144958193D01*
X142468488Y-144518570D01*
X142480700Y-144457178D01*
X142604617Y-144754847D01*
X142979149Y-145128053D01*
X143467991Y-145329523D01*
X143679200Y-145265242D01*
X143679200Y-144050800D01*
X143780800Y-144050800D01*
X143780800Y-145265242D01*
X143992009Y-145329523D01*
X144480851Y-145128053D01*
X144855383Y-144754847D01*
X145000000Y-144407455D01*
X145144617Y-144754847D01*
X145519149Y-145128053D01*
X146007991Y-145329523D01*
X146219200Y-145265242D01*
X146219200Y-144050800D01*
X145004829Y-144050800D01*
X145000000Y-144066650D01*
X144995171Y-144050800D01*
X143780800Y-144050800D01*
X143679200Y-144050800D01*
X143659200Y-144050800D01*
X143659200Y-143949200D01*
X143679200Y-143949200D01*
X143679200Y-142734758D01*
X143780800Y-142734758D01*
X143780800Y-143949200D01*
X144995171Y-143949200D01*
X145000000Y-143933350D01*
X145004829Y-143949200D01*
X146219200Y-143949200D01*
X146219200Y-142734758D01*
X146007991Y-142670477D01*
X145519149Y-142871947D01*
X145144617Y-143245153D01*
X145000000Y-143592545D01*
X144855383Y-143245153D01*
X144480851Y-142871947D01*
X143992009Y-142670477D01*
X143780800Y-142734758D01*
X143679200Y-142734758D01*
X143467991Y-142670477D01*
X142979149Y-142871947D01*
X142604617Y-143245153D01*
X142480700Y-143542822D01*
X142468488Y-143481430D01*
X142174741Y-143041807D01*
X141735118Y-142748060D01*
X141216548Y-142644910D01*
X141163452Y-142644910D01*
X140644882Y-142748060D01*
X140205259Y-143041807D01*
X140069891Y-143244400D01*
X137737260Y-143244400D01*
X137598730Y-143105628D01*
X137210893Y-142944584D01*
X136790949Y-142944218D01*
X136402832Y-143104584D01*
X136105628Y-143401270D01*
X136062566Y-143504975D01*
X136062566Y-143300000D01*
X136037770Y-143168223D01*
X135959890Y-143047193D01*
X135841058Y-142965999D01*
X135755600Y-142948693D01*
X135755600Y-142812980D01*
X139284290Y-139284290D01*
X139448083Y-139039156D01*
X139505600Y-138750000D01*
X139505600Y-125498840D01*
X140180975Y-125498840D01*
X140276585Y-125979502D01*
X140548858Y-126386987D01*
X140956343Y-126659260D01*
X141164400Y-126700645D01*
X141164400Y-128320000D01*
X141221917Y-128609156D01*
X141319768Y-128755600D01*
X141385710Y-128854290D01*
X154244400Y-141712980D01*
X154244400Y-142947896D01*
X154168223Y-142962230D01*
X154047193Y-143040110D01*
X153965999Y-143158942D01*
X153937434Y-143300000D01*
X153937434Y-143504524D01*
X153895416Y-143402832D01*
X153598730Y-143105628D01*
X153210893Y-142944584D01*
X152790949Y-142944218D01*
X152402832Y-143104584D01*
X152262772Y-143244400D01*
X150172056Y-143244400D01*
X150172056Y-143000510D01*
X150147260Y-142868733D01*
X150069380Y-142747703D01*
X149950548Y-142666509D01*
X149809490Y-142637944D01*
X147810510Y-142637944D01*
X147678733Y-142662740D01*
X147557703Y-142740620D01*
X147476509Y-142859452D01*
X147447944Y-143000510D01*
X147447944Y-143371413D01*
X147395383Y-143245153D01*
X147020851Y-142871947D01*
X146532009Y-142670477D01*
X146320800Y-142734758D01*
X146320800Y-143949200D01*
X146340800Y-143949200D01*
X146340800Y-144050800D01*
X146320800Y-144050800D01*
X146320800Y-145265242D01*
X146532009Y-145329523D01*
X147020851Y-145128053D01*
X147395383Y-144754847D01*
X147447944Y-144628587D01*
X147447944Y-144999490D01*
X147472740Y-145131267D01*
X147550620Y-145252297D01*
X147669452Y-145333491D01*
X147810510Y-145362056D01*
X149809490Y-145362056D01*
X149941267Y-145337260D01*
X150062297Y-145259380D01*
X150143491Y-145140548D01*
X150172056Y-144999490D01*
X150172056Y-144755600D01*
X152262740Y-144755600D01*
X152401270Y-144894372D01*
X152789107Y-145055416D01*
X153209051Y-145055782D01*
X153597168Y-144895416D01*
X153894372Y-144598730D01*
X153937434Y-144495025D01*
X153937434Y-144700000D01*
X153962230Y-144831777D01*
X154040110Y-144952807D01*
X154158942Y-145034001D01*
X154300000Y-145062566D01*
X155700000Y-145062566D01*
X155831777Y-145037770D01*
X155952807Y-144959890D01*
X156034001Y-144841058D01*
X156062566Y-144700000D01*
X156062566Y-143300000D01*
X156037770Y-143168223D01*
X155959890Y-143047193D01*
X155841058Y-142965999D01*
X155755600Y-142948693D01*
X155755600Y-141400000D01*
X155698083Y-141110844D01*
X155534290Y-140865710D01*
X144940439Y-130271859D01*
X149499240Y-130271859D01*
X149937925Y-131333557D01*
X150749511Y-132146560D01*
X151810441Y-132587097D01*
X152959199Y-132588100D01*
X154020897Y-132149415D01*
X154833900Y-131337829D01*
X155274437Y-130276899D01*
X155275440Y-129128141D01*
X154836755Y-128066443D01*
X154025169Y-127253440D01*
X152964239Y-126812903D01*
X151815481Y-126811900D01*
X150753783Y-127250585D01*
X149940780Y-128062171D01*
X149500243Y-129123101D01*
X149499240Y-130271859D01*
X144940439Y-130271859D01*
X142675600Y-128007020D01*
X142675600Y-126700645D01*
X142883657Y-126659260D01*
X143291142Y-126386987D01*
X143563415Y-125979502D01*
X143659025Y-125498840D01*
X143563415Y-125018178D01*
X143291142Y-124610693D01*
X142883657Y-124338420D01*
X142402995Y-124242810D01*
X141437005Y-124242810D01*
X140956343Y-124338420D01*
X140548858Y-124610693D01*
X140276585Y-125018178D01*
X140180975Y-125498840D01*
X139505600Y-125498840D01*
X139505600Y-123799580D01*
X145260975Y-123799580D01*
X145356585Y-124280242D01*
X145628858Y-124687727D01*
X146036343Y-124960000D01*
X146517005Y-125055610D01*
X147482995Y-125055610D01*
X147963657Y-124960000D01*
X148371142Y-124687727D01*
X148459707Y-124555180D01*
X156986600Y-124555180D01*
X158215710Y-125784290D01*
X158460845Y-125948084D01*
X158750000Y-126005600D01*
X165889479Y-126005600D01*
X166231401Y-126348120D01*
X166630400Y-126513798D01*
X166630400Y-131379462D01*
X166485146Y-131729273D01*
X166484675Y-132268362D01*
X166690541Y-132766594D01*
X167071401Y-133148120D01*
X167569273Y-133354854D01*
X168108362Y-133355325D01*
X168606594Y-133149459D01*
X168807084Y-132949318D01*
X177122524Y-132949318D01*
X177229541Y-133146872D01*
X177727077Y-133354414D01*
X178266164Y-133355759D01*
X178764730Y-133150702D01*
X178770459Y-133146872D01*
X178877476Y-132949318D01*
X178000000Y-132071842D01*
X177122524Y-132949318D01*
X168807084Y-132949318D01*
X168988120Y-132768599D01*
X169194854Y-132270727D01*
X169194857Y-132266164D01*
X176644241Y-132266164D01*
X176849298Y-132764730D01*
X176853128Y-132770459D01*
X177050682Y-132877476D01*
X177928158Y-132000000D01*
X178071842Y-132000000D01*
X178949318Y-132877476D01*
X179146872Y-132770459D01*
X179354414Y-132272923D01*
X179355759Y-131733836D01*
X179150702Y-131235270D01*
X179146872Y-131229541D01*
X178949318Y-131122524D01*
X178071842Y-132000000D01*
X177928158Y-132000000D01*
X177050682Y-131122524D01*
X176853128Y-131229541D01*
X176645586Y-131727077D01*
X176644241Y-132266164D01*
X169194857Y-132266164D01*
X169195325Y-131731638D01*
X168989459Y-131233406D01*
X168807054Y-131050682D01*
X177122524Y-131050682D01*
X178000000Y-131928158D01*
X178877476Y-131050682D01*
X178770459Y-130853128D01*
X178272923Y-130645586D01*
X177733836Y-130644241D01*
X177235270Y-130849298D01*
X177229541Y-130853128D01*
X177122524Y-131050682D01*
X168807054Y-131050682D01*
X168608599Y-130851880D01*
X168141600Y-130657966D01*
X168141600Y-125975108D01*
X168148120Y-125968599D01*
X168354854Y-125470727D01*
X168354891Y-125428362D01*
X169394675Y-125428362D01*
X169600541Y-125926594D01*
X169981401Y-126308120D01*
X170479273Y-126514854D01*
X171018362Y-126515325D01*
X171516594Y-126309459D01*
X171849033Y-125977600D01*
X172409020Y-125977600D01*
X175965710Y-129534290D01*
X176210845Y-129698084D01*
X176500000Y-129755600D01*
X176947896Y-129755600D01*
X176962230Y-129831777D01*
X177040110Y-129952807D01*
X177158942Y-130034001D01*
X177300000Y-130062566D01*
X178700000Y-130062566D01*
X178831777Y-130037770D01*
X178952807Y-129959890D01*
X179034001Y-129841058D01*
X179062566Y-129700000D01*
X179062566Y-128300000D01*
X179037770Y-128168223D01*
X178959890Y-128047193D01*
X178841058Y-127965999D01*
X178700000Y-127937434D01*
X177300000Y-127937434D01*
X177168223Y-127962230D01*
X177047193Y-128040110D01*
X176965999Y-128158942D01*
X176948693Y-128244400D01*
X176812980Y-128244400D01*
X173301759Y-124733179D01*
X177338663Y-124733179D01*
X177409182Y-124899617D01*
X177798424Y-125057234D01*
X178218354Y-125053897D01*
X178590818Y-124899617D01*
X178661337Y-124733179D01*
X178000000Y-124071842D01*
X177338663Y-124733179D01*
X173301759Y-124733179D01*
X173256290Y-124687710D01*
X173011156Y-124523917D01*
X172722000Y-124466400D01*
X171929620Y-124466400D01*
X171899459Y-124393406D01*
X171518599Y-124011880D01*
X171020727Y-123805146D01*
X170481638Y-123804675D01*
X169983406Y-124010541D01*
X169601880Y-124391401D01*
X169395146Y-124889273D01*
X169394675Y-125428362D01*
X168354891Y-125428362D01*
X168355325Y-124931638D01*
X168149459Y-124433406D01*
X167768599Y-124051880D01*
X167270727Y-123845146D01*
X166731638Y-123844675D01*
X166233406Y-124050541D01*
X165851880Y-124431401D01*
X165825721Y-124494400D01*
X159062980Y-124494400D01*
X158367004Y-123798424D01*
X176942766Y-123798424D01*
X176946103Y-124218354D01*
X177100383Y-124590818D01*
X177266821Y-124661337D01*
X177928158Y-124000000D01*
X178071842Y-124000000D01*
X178733179Y-124661337D01*
X178899617Y-124590818D01*
X179057234Y-124201576D01*
X179053897Y-123781646D01*
X178899617Y-123409182D01*
X178733179Y-123338663D01*
X178071842Y-124000000D01*
X177928158Y-124000000D01*
X177266821Y-123338663D01*
X177100383Y-123409182D01*
X176942766Y-123798424D01*
X158367004Y-123798424D01*
X157835401Y-123266821D01*
X177338663Y-123266821D01*
X178000000Y-123928158D01*
X178661337Y-123266821D01*
X178590818Y-123100383D01*
X178201576Y-122942766D01*
X177781646Y-122946103D01*
X177409182Y-123100383D01*
X177338663Y-123266821D01*
X157835401Y-123266821D01*
X157833870Y-123265290D01*
X157825639Y-123259790D01*
X157588736Y-123101497D01*
X157299580Y-123043980D01*
X148459707Y-123043980D01*
X148371142Y-122911433D01*
X147963657Y-122639160D01*
X147482995Y-122543550D01*
X146517005Y-122543550D01*
X146036343Y-122639160D01*
X145628858Y-122911433D01*
X145356585Y-123318918D01*
X145260975Y-123799580D01*
X139505600Y-123799580D01*
X139505600Y-122346820D01*
X140238816Y-122346820D01*
X140290560Y-122534049D01*
X140546352Y-122952546D01*
X140942825Y-123241300D01*
X141419620Y-123356350D01*
X141869200Y-123356350D01*
X141869200Y-122151120D01*
X141970800Y-122151120D01*
X141970800Y-123356350D01*
X142420380Y-123356350D01*
X142897175Y-123241300D01*
X143293648Y-122952546D01*
X143549440Y-122534049D01*
X143601184Y-122346820D01*
X143535604Y-122151120D01*
X141970800Y-122151120D01*
X141869200Y-122151120D01*
X140304396Y-122151120D01*
X140238816Y-122346820D01*
X139505600Y-122346820D01*
X139505600Y-121853820D01*
X140238816Y-121853820D01*
X140304396Y-122049520D01*
X141869200Y-122049520D01*
X141869200Y-120844290D01*
X141970800Y-120844290D01*
X141970800Y-122049520D01*
X143535604Y-122049520D01*
X143601184Y-121853820D01*
X143549440Y-121666591D01*
X143293648Y-121248094D01*
X142897175Y-120959340D01*
X142420380Y-120844290D01*
X141970800Y-120844290D01*
X141869200Y-120844290D01*
X141419620Y-120844290D01*
X140942825Y-120959340D01*
X140546352Y-121248094D01*
X140290560Y-121666591D01*
X140238816Y-121853820D01*
X139505600Y-121853820D01*
X139505600Y-120401060D01*
X145260975Y-120401060D01*
X145356585Y-120881722D01*
X145628858Y-121289207D01*
X146036343Y-121561480D01*
X146517005Y-121657090D01*
X147482995Y-121657090D01*
X147963657Y-121561480D01*
X148371142Y-121289207D01*
X148459707Y-121156660D01*
X152198940Y-121156660D01*
X152488096Y-121099143D01*
X152733230Y-120935350D01*
X154885128Y-118783452D01*
X176644910Y-118783452D01*
X176644910Y-118836548D01*
X176748060Y-119355118D01*
X177041807Y-119794741D01*
X177481430Y-120088488D01*
X178000000Y-120191638D01*
X178518570Y-120088488D01*
X178958193Y-119794741D01*
X179251940Y-119355118D01*
X179355090Y-118836548D01*
X179355090Y-118783452D01*
X179251940Y-118264882D01*
X178958193Y-117825259D01*
X178518570Y-117531512D01*
X178457178Y-117519300D01*
X178754847Y-117395383D01*
X179128053Y-117020851D01*
X179329523Y-116532009D01*
X179265242Y-116320800D01*
X178050800Y-116320800D01*
X178050800Y-116340800D01*
X177949200Y-116340800D01*
X177949200Y-116320800D01*
X176734758Y-116320800D01*
X176670477Y-116532009D01*
X176871947Y-117020851D01*
X177245153Y-117395383D01*
X177542822Y-117519300D01*
X177481430Y-117531512D01*
X177041807Y-117825259D01*
X176748060Y-118264882D01*
X176644910Y-118783452D01*
X154885128Y-118783452D01*
X158360218Y-115308362D01*
X165644675Y-115308362D01*
X165850541Y-115806594D01*
X166231401Y-116188120D01*
X166729273Y-116394854D01*
X167268362Y-116395325D01*
X167766594Y-116189459D01*
X168148120Y-115808599D01*
X168354854Y-115310727D01*
X168354891Y-115268362D01*
X169394675Y-115268362D01*
X169600541Y-115766594D01*
X169981401Y-116148120D01*
X170479273Y-116354854D01*
X171018362Y-116355325D01*
X171516594Y-116149459D01*
X171898120Y-115768599D01*
X172104854Y-115270727D01*
X172105325Y-114731638D01*
X171899459Y-114233406D01*
X171658484Y-113992009D01*
X176670477Y-113992009D01*
X176871947Y-114480851D01*
X177245153Y-114855383D01*
X177592545Y-115000000D01*
X177245153Y-115144617D01*
X176871947Y-115519149D01*
X176670477Y-116007991D01*
X176734758Y-116219200D01*
X177949200Y-116219200D01*
X177949200Y-115004829D01*
X177933350Y-115000000D01*
X177949200Y-114995171D01*
X177949200Y-113780800D01*
X178050800Y-113780800D01*
X178050800Y-114995171D01*
X178066650Y-115000000D01*
X178050800Y-115004829D01*
X178050800Y-116219200D01*
X179265242Y-116219200D01*
X179329523Y-116007991D01*
X179128053Y-115519149D01*
X178754847Y-115144617D01*
X178407455Y-115000000D01*
X178754847Y-114855383D01*
X179128053Y-114480851D01*
X179329523Y-113992009D01*
X179265242Y-113780800D01*
X178050800Y-113780800D01*
X177949200Y-113780800D01*
X176734758Y-113780800D01*
X176670477Y-113992009D01*
X171658484Y-113992009D01*
X171518599Y-113851880D01*
X171020727Y-113645146D01*
X170481638Y-113644675D01*
X169983406Y-113850541D01*
X169601880Y-114231401D01*
X169395146Y-114729273D01*
X169394675Y-115268362D01*
X168354891Y-115268362D01*
X168355325Y-114771638D01*
X168149459Y-114273406D01*
X167768599Y-113891880D01*
X167270727Y-113685146D01*
X166731638Y-113684675D01*
X166233406Y-113890541D01*
X165851880Y-114271401D01*
X165645146Y-114769273D01*
X165644675Y-115308362D01*
X158360218Y-115308362D01*
X161912980Y-111755600D01*
X165821207Y-111755600D01*
X165850541Y-111826594D01*
X166231401Y-112208120D01*
X166729273Y-112414854D01*
X167268362Y-112415325D01*
X167766594Y-112209459D01*
X168148120Y-111828599D01*
X168178432Y-111755600D01*
X169345998Y-111755600D01*
X169350541Y-111766594D01*
X169731401Y-112148120D01*
X170229273Y-112354854D01*
X170768362Y-112355325D01*
X171266594Y-112149459D01*
X171648120Y-111768599D01*
X171854854Y-111270727D01*
X171855325Y-110731638D01*
X171649459Y-110233406D01*
X171268599Y-109851880D01*
X170770727Y-109645146D01*
X170231638Y-109644675D01*
X169733406Y-109850541D01*
X169351880Y-110231401D01*
X169346482Y-110244400D01*
X168100539Y-110244400D01*
X167768599Y-109911880D01*
X167270727Y-109705146D01*
X166731638Y-109704675D01*
X166233406Y-109910541D01*
X165898963Y-110244400D01*
X161600000Y-110244400D01*
X161310845Y-110301916D01*
X161065710Y-110465710D01*
X151885960Y-119645460D01*
X148459707Y-119645460D01*
X148371142Y-119512913D01*
X147963657Y-119240640D01*
X147482995Y-119145030D01*
X146517005Y-119145030D01*
X146036343Y-119240640D01*
X145628858Y-119512913D01*
X145356585Y-119920398D01*
X145260975Y-120401060D01*
X139505600Y-120401060D01*
X139505600Y-120032230D01*
X140082970Y-119454860D01*
X140460293Y-119454860D01*
X140548858Y-119587407D01*
X140956343Y-119859680D01*
X141437005Y-119955290D01*
X142402995Y-119955290D01*
X142883657Y-119859680D01*
X143291142Y-119587407D01*
X143563415Y-119179922D01*
X143659025Y-118699260D01*
X143563415Y-118218598D01*
X143291142Y-117811113D01*
X142883657Y-117538840D01*
X142402995Y-117443230D01*
X141437005Y-117443230D01*
X140956343Y-117538840D01*
X140548858Y-117811113D01*
X140460293Y-117943660D01*
X139769990Y-117943660D01*
X139480835Y-118001176D01*
X139235700Y-118164970D01*
X138215710Y-119184960D01*
X138051917Y-119430094D01*
X137994400Y-119719250D01*
X137994400Y-138437020D01*
X134465710Y-141965710D01*
X134301917Y-142210844D01*
X134244400Y-142500000D01*
X134244400Y-142947896D01*
X134168223Y-142962230D01*
X134047193Y-143040110D01*
X133965999Y-143158942D01*
X133937434Y-143300000D01*
X102472829Y-143300000D01*
X102074569Y-142901045D01*
X100730734Y-142343036D01*
X99275650Y-142341766D01*
X97930843Y-142897429D01*
X96901045Y-143925431D01*
X96343036Y-145269266D01*
X96341766Y-146724350D01*
X94430600Y-146724350D01*
X94430600Y-138139700D01*
X105644400Y-138139700D01*
X105644400Y-138820733D01*
X105698537Y-138951431D01*
X105798569Y-139051463D01*
X105929267Y-139105600D01*
X106610300Y-139105600D01*
X106699200Y-139016700D01*
X106699200Y-138050800D01*
X106800800Y-138050800D01*
X106800800Y-139016700D01*
X106889700Y-139105600D01*
X107570733Y-139105600D01*
X107701431Y-139051463D01*
X107801463Y-138951431D01*
X107855600Y-138820733D01*
X107855600Y-138139700D01*
X107766700Y-138050800D01*
X106800800Y-138050800D01*
X106699200Y-138050800D01*
X105733300Y-138050800D01*
X105644400Y-138139700D01*
X94430600Y-138139700D01*
X94430600Y-137179267D01*
X105644400Y-137179267D01*
X105644400Y-137860300D01*
X105733300Y-137949200D01*
X106699200Y-137949200D01*
X106699200Y-136983300D01*
X106800800Y-136983300D01*
X106800800Y-137949200D01*
X107766700Y-137949200D01*
X107855600Y-137860300D01*
X107855600Y-137179267D01*
X107801463Y-137048569D01*
X107701431Y-136948537D01*
X107570733Y-136894400D01*
X106889700Y-136894400D01*
X106800800Y-136983300D01*
X106699200Y-136983300D01*
X106610300Y-136894400D01*
X105929267Y-136894400D01*
X105798569Y-136948537D01*
X105698537Y-137048569D01*
X105644400Y-137179267D01*
X94430600Y-137179267D01*
X94430600Y-135782126D01*
X116168825Y-135782126D01*
X116218762Y-135963037D01*
X116468498Y-136372470D01*
X116855907Y-136655167D01*
X117322010Y-136768090D01*
X117699200Y-136768090D01*
X117699200Y-135590800D01*
X117800800Y-135590800D01*
X117800800Y-136768090D01*
X118177990Y-136768090D01*
X118644093Y-136655167D01*
X119031502Y-136372470D01*
X119281238Y-135963037D01*
X119331175Y-135782126D01*
X119265247Y-135590800D01*
X117800800Y-135590800D01*
X117699200Y-135590800D01*
X116234753Y-135590800D01*
X116168825Y-135782126D01*
X94430600Y-135782126D01*
X94430600Y-135297874D01*
X116168825Y-135297874D01*
X116234753Y-135489200D01*
X117699200Y-135489200D01*
X117699200Y-134311910D01*
X117800800Y-134311910D01*
X117800800Y-135489200D01*
X119265247Y-135489200D01*
X119331175Y-135297874D01*
X119281238Y-135116963D01*
X119031502Y-134707530D01*
X118644093Y-134424833D01*
X118177990Y-134311910D01*
X117800800Y-134311910D01*
X117699200Y-134311910D01*
X117322010Y-134311910D01*
X116855907Y-134424833D01*
X116468498Y-134707530D01*
X116218762Y-135116963D01*
X116168825Y-135297874D01*
X94430600Y-135297874D01*
X94430600Y-125639700D01*
X97194400Y-125639700D01*
X97194400Y-126270733D01*
X97248537Y-126401431D01*
X97348569Y-126501463D01*
X97479267Y-126555600D01*
X98110300Y-126555600D01*
X98199200Y-126466700D01*
X98199200Y-125550800D01*
X98300800Y-125550800D01*
X98300800Y-126466700D01*
X98389700Y-126555600D01*
X99020733Y-126555600D01*
X99151431Y-126501463D01*
X99251463Y-126401431D01*
X99305600Y-126270733D01*
X99305600Y-125709051D01*
X102194218Y-125709051D01*
X102354584Y-126097168D01*
X102651270Y-126394372D01*
X103039107Y-126555416D01*
X103459051Y-126555782D01*
X103847168Y-126395416D01*
X104144372Y-126098730D01*
X104305416Y-125710893D01*
X104305782Y-125290949D01*
X104145416Y-124902832D01*
X104005600Y-124762772D01*
X104005600Y-124312980D01*
X105402980Y-122915600D01*
X105848538Y-122915600D01*
X105853081Y-122926594D01*
X105994400Y-123068160D01*
X105994400Y-132192090D01*
X105813264Y-132372910D01*
X105644592Y-132779118D01*
X105644208Y-133218953D01*
X105812171Y-133625454D01*
X106122910Y-133936736D01*
X106529118Y-134105408D01*
X106968953Y-134105792D01*
X107375454Y-133937829D01*
X107558001Y-133755600D01*
X116397377Y-133755600D01*
X116473342Y-133869289D01*
X116872175Y-134135781D01*
X117342631Y-134229360D01*
X118157369Y-134229360D01*
X118627825Y-134135781D01*
X119026658Y-133869289D01*
X119102623Y-133755600D01*
X121529560Y-133755600D01*
X125652248Y-137878288D01*
X125647686Y-137889273D01*
X125647215Y-138428362D01*
X125853081Y-138926594D01*
X126233941Y-139308120D01*
X126731813Y-139514854D01*
X127270902Y-139515325D01*
X127769134Y-139309459D01*
X128150660Y-138928599D01*
X128357394Y-138430727D01*
X128357429Y-138389700D01*
X129142370Y-138389700D01*
X129142370Y-139320223D01*
X129196507Y-139450921D01*
X129296539Y-139550953D01*
X129427237Y-139605090D01*
X130357760Y-139605090D01*
X130446660Y-139516190D01*
X130446660Y-138300800D01*
X130548260Y-138300800D01*
X130548260Y-139516190D01*
X130637160Y-139605090D01*
X131567683Y-139605090D01*
X131698381Y-139550953D01*
X131798413Y-139450921D01*
X131852550Y-139320223D01*
X131852550Y-138389700D01*
X131763650Y-138300800D01*
X130548260Y-138300800D01*
X130446660Y-138300800D01*
X129231270Y-138300800D01*
X129142370Y-138389700D01*
X128357429Y-138389700D01*
X128357865Y-137891638D01*
X128151999Y-137393406D01*
X127938743Y-137179777D01*
X129142370Y-137179777D01*
X129142370Y-138110300D01*
X129231270Y-138199200D01*
X130446660Y-138199200D01*
X130446660Y-136983810D01*
X130548260Y-136983810D01*
X130548260Y-138199200D01*
X131763650Y-138199200D01*
X131852550Y-138110300D01*
X131852550Y-137179777D01*
X131798413Y-137049079D01*
X131698381Y-136949047D01*
X131567683Y-136894910D01*
X130637160Y-136894910D01*
X130548260Y-136983810D01*
X130446660Y-136983810D01*
X130357760Y-136894910D01*
X129427237Y-136894910D01*
X129296539Y-136949047D01*
X129196507Y-137049079D01*
X129142370Y-137179777D01*
X127938743Y-137179777D01*
X127771139Y-137011880D01*
X127273267Y-136805146D01*
X126734178Y-136804675D01*
X126721170Y-136810050D01*
X125800820Y-135889700D01*
X134194400Y-135889700D01*
X134194400Y-136520733D01*
X134248537Y-136651431D01*
X134348569Y-136751463D01*
X134479267Y-136805600D01*
X135110300Y-136805600D01*
X135199200Y-136716700D01*
X135199200Y-135800800D01*
X135300800Y-135800800D01*
X135300800Y-136716700D01*
X135389700Y-136805600D01*
X136020733Y-136805600D01*
X136151431Y-136751463D01*
X136251463Y-136651431D01*
X136305600Y-136520733D01*
X136305600Y-135889700D01*
X136216700Y-135800800D01*
X135300800Y-135800800D01*
X135199200Y-135800800D01*
X134283300Y-135800800D01*
X134194400Y-135889700D01*
X125800820Y-135889700D01*
X124890387Y-134979267D01*
X134194400Y-134979267D01*
X134194400Y-135610300D01*
X134283300Y-135699200D01*
X135199200Y-135699200D01*
X135199200Y-134783300D01*
X135300800Y-134783300D01*
X135300800Y-135699200D01*
X136216700Y-135699200D01*
X136305600Y-135610300D01*
X136305600Y-134979267D01*
X136251463Y-134848569D01*
X136151431Y-134748537D01*
X136020733Y-134694400D01*
X135389700Y-134694400D01*
X135300800Y-134783300D01*
X135199200Y-134783300D01*
X135110300Y-134694400D01*
X134479267Y-134694400D01*
X134348569Y-134748537D01*
X134248537Y-134848569D01*
X134194400Y-134979267D01*
X124890387Y-134979267D01*
X122376830Y-132465710D01*
X122240393Y-132374546D01*
X122131696Y-132301917D01*
X121842540Y-132244400D01*
X119102623Y-132244400D01*
X119026658Y-132130711D01*
X118627825Y-131864219D01*
X118157369Y-131770640D01*
X117342631Y-131770640D01*
X116872175Y-131864219D01*
X116473342Y-132130711D01*
X116397377Y-132244400D01*
X107557910Y-132244400D01*
X107505600Y-132191999D01*
X107505600Y-130460000D01*
X116113271Y-130460000D01*
X116206850Y-130930456D01*
X116473342Y-131329289D01*
X116872175Y-131595781D01*
X117342631Y-131689360D01*
X118157369Y-131689360D01*
X118627825Y-131595781D01*
X119026658Y-131329289D01*
X119102623Y-131215600D01*
X121049680Y-131215600D01*
X121338836Y-131158083D01*
X121583970Y-130994290D01*
X123822660Y-128755600D01*
X125640484Y-128755600D01*
X125640484Y-128999490D01*
X125665280Y-129131267D01*
X125743160Y-129252297D01*
X125861992Y-129333491D01*
X126003050Y-129362056D01*
X128002030Y-129362056D01*
X128133807Y-129337260D01*
X128254837Y-129259380D01*
X128336031Y-129140548D01*
X128364596Y-128999490D01*
X128364596Y-128755600D01*
X129306271Y-128755600D01*
X129348001Y-128856594D01*
X129728861Y-129238120D01*
X130226733Y-129444854D01*
X130765822Y-129445325D01*
X131264054Y-129239459D01*
X131645580Y-128858599D01*
X131650978Y-128845600D01*
X132277020Y-128845600D01*
X134194389Y-130762969D01*
X134194218Y-130959051D01*
X134354584Y-131347168D01*
X134651270Y-131644372D01*
X135039107Y-131805416D01*
X135459051Y-131805782D01*
X135847168Y-131645416D01*
X136144372Y-131348730D01*
X136305416Y-130960893D01*
X136305782Y-130540949D01*
X136145416Y-130152832D01*
X135848730Y-129855628D01*
X135460893Y-129694584D01*
X135262992Y-129694412D01*
X133124290Y-127555710D01*
X132989595Y-127465710D01*
X132879156Y-127391917D01*
X132590000Y-127334400D01*
X131651462Y-127334400D01*
X131646919Y-127323406D01*
X131266059Y-126941880D01*
X130768187Y-126735146D01*
X130229098Y-126734675D01*
X129730866Y-126940541D01*
X129426476Y-127244400D01*
X128364596Y-127244400D01*
X128364596Y-127000510D01*
X128339800Y-126868733D01*
X128261920Y-126747703D01*
X128143088Y-126666509D01*
X128002030Y-126637944D01*
X126003050Y-126637944D01*
X125871273Y-126662740D01*
X125750243Y-126740620D01*
X125669049Y-126859452D01*
X125640484Y-127000510D01*
X125640484Y-127244400D01*
X123509680Y-127244400D01*
X123220524Y-127301917D01*
X123076546Y-127398120D01*
X122975390Y-127465710D01*
X120736700Y-129704400D01*
X119102623Y-129704400D01*
X119026658Y-129590711D01*
X118627825Y-129324219D01*
X118157369Y-129230640D01*
X117342631Y-129230640D01*
X116872175Y-129324219D01*
X116473342Y-129590711D01*
X116206850Y-129989544D01*
X116113271Y-130460000D01*
X107505600Y-130460000D01*
X107505600Y-123959051D01*
X129194218Y-123959051D01*
X129354584Y-124347168D01*
X129651270Y-124644372D01*
X130039107Y-124805416D01*
X130459051Y-124805782D01*
X130847168Y-124645416D01*
X131144372Y-124348730D01*
X131187434Y-124245025D01*
X131187434Y-124450000D01*
X131212230Y-124581777D01*
X131290110Y-124702807D01*
X131408942Y-124784001D01*
X131550000Y-124812566D01*
X132950000Y-124812566D01*
X133081777Y-124787770D01*
X133202807Y-124709890D01*
X133284001Y-124591058D01*
X133312566Y-124450000D01*
X133312566Y-124280600D01*
X133544867Y-124280600D01*
X135218660Y-125802230D01*
X135145146Y-125979273D01*
X135144675Y-126518362D01*
X135350541Y-127016594D01*
X135731401Y-127398120D01*
X136229273Y-127604854D01*
X136768362Y-127605325D01*
X137266594Y-127399459D01*
X137648120Y-127018599D01*
X137854854Y-126520727D01*
X137855325Y-125981638D01*
X137649459Y-125483406D01*
X137268599Y-125101880D01*
X136770727Y-124895146D01*
X136231638Y-124894675D01*
X135933461Y-125017880D01*
X134106920Y-123357388D01*
X134028825Y-123310420D01*
X133953052Y-123259790D01*
X133940486Y-123257291D01*
X133929505Y-123250686D01*
X133839369Y-123237177D01*
X133750000Y-123219400D01*
X133312566Y-123219400D01*
X133312566Y-123050000D01*
X133287770Y-122918223D01*
X133209890Y-122797193D01*
X133091058Y-122715999D01*
X132950000Y-122687434D01*
X131550000Y-122687434D01*
X131418223Y-122712230D01*
X131297193Y-122790110D01*
X131215999Y-122908942D01*
X131187434Y-123050000D01*
X131187434Y-123254524D01*
X131145416Y-123152832D01*
X130848730Y-122855628D01*
X130780600Y-122827338D01*
X130780600Y-121509782D01*
X131723674Y-120566708D01*
X131889139Y-120635415D01*
X132378713Y-120635843D01*
X132831185Y-120448885D01*
X133177669Y-120103006D01*
X133247182Y-119935600D01*
X133845000Y-119935600D01*
X134048052Y-119895210D01*
X134220191Y-119780191D01*
X136555243Y-117445139D01*
X136768362Y-117445325D01*
X137266594Y-117239459D01*
X137506471Y-117000000D01*
X145260975Y-117000000D01*
X145356585Y-117480662D01*
X145628858Y-117888147D01*
X146036343Y-118160420D01*
X146517005Y-118256030D01*
X147482995Y-118256030D01*
X147963657Y-118160420D01*
X148371142Y-117888147D01*
X148643415Y-117480662D01*
X148739025Y-117000000D01*
X148643415Y-116519338D01*
X148371142Y-116111853D01*
X147963657Y-115839580D01*
X147482995Y-115743970D01*
X146517005Y-115743970D01*
X146036343Y-115839580D01*
X145628858Y-116111853D01*
X145356585Y-116519338D01*
X145260975Y-117000000D01*
X137506471Y-117000000D01*
X137648120Y-116858599D01*
X137746946Y-116620600D01*
X138160000Y-116620600D01*
X138363052Y-116580210D01*
X138535191Y-116465191D01*
X139169042Y-115831340D01*
X140309953Y-115831340D01*
X140548858Y-116188887D01*
X140956343Y-116461160D01*
X141437005Y-116556770D01*
X142402995Y-116556770D01*
X142883657Y-116461160D01*
X143291142Y-116188887D01*
X143563415Y-115781402D01*
X143659025Y-115300740D01*
X143563415Y-114820078D01*
X143291142Y-114412593D01*
X142883657Y-114140320D01*
X142402995Y-114044710D01*
X141437005Y-114044710D01*
X140956343Y-114140320D01*
X140548858Y-114412593D01*
X140309953Y-114770140D01*
X138949260Y-114770140D01*
X138746208Y-114810530D01*
X138574069Y-114925549D01*
X137940218Y-115559400D01*
X137746970Y-115559400D01*
X137649459Y-115323406D01*
X137268599Y-114941880D01*
X136770727Y-114735146D01*
X136231638Y-114734675D01*
X135733406Y-114940541D01*
X135351880Y-115321401D01*
X135145146Y-115819273D01*
X135144675Y-116358362D01*
X135350541Y-116856594D01*
X135496655Y-117002963D01*
X133625218Y-118874400D01*
X133247303Y-118874400D01*
X133178885Y-118708815D01*
X132833006Y-118362331D01*
X132380861Y-118174585D01*
X131891287Y-118174157D01*
X131438815Y-118361115D01*
X131092331Y-118706994D01*
X130904585Y-119159139D01*
X130904157Y-119648713D01*
X130973378Y-119816240D01*
X129874809Y-120914809D01*
X129759790Y-121086948D01*
X129719400Y-121290000D01*
X129719400Y-122827079D01*
X129652832Y-122854584D01*
X129355628Y-123151270D01*
X129194584Y-123539107D01*
X129194218Y-123959051D01*
X107505600Y-123959051D01*
X107505600Y-123418349D01*
X107769134Y-123309459D01*
X108150660Y-122928599D01*
X108156058Y-122915600D01*
X109848538Y-122915600D01*
X109853081Y-122926594D01*
X110233941Y-123308120D01*
X110731813Y-123514854D01*
X111270902Y-123515325D01*
X111769134Y-123309459D01*
X112150660Y-122928599D01*
X112357394Y-122430727D01*
X112357865Y-121891638D01*
X112151999Y-121393406D01*
X111771139Y-121011880D01*
X111273267Y-120805146D01*
X110734178Y-120804675D01*
X110235946Y-121010541D01*
X109854420Y-121391401D01*
X109849022Y-121404400D01*
X108156542Y-121404400D01*
X108151999Y-121393406D01*
X107771139Y-121011880D01*
X107273267Y-120805146D01*
X106734178Y-120804675D01*
X106235946Y-121010541D01*
X105854420Y-121391401D01*
X105849022Y-121404400D01*
X105090000Y-121404400D01*
X104800844Y-121461917D01*
X104555710Y-121625710D01*
X102715710Y-123465710D01*
X102551917Y-123710844D01*
X102494400Y-124000000D01*
X102494400Y-124762740D01*
X102355628Y-124901270D01*
X102194584Y-125289107D01*
X102194218Y-125709051D01*
X99305600Y-125709051D01*
X99305600Y-125639700D01*
X99216700Y-125550800D01*
X98300800Y-125550800D01*
X98199200Y-125550800D01*
X97283300Y-125550800D01*
X97194400Y-125639700D01*
X94430600Y-125639700D01*
X94430600Y-124729267D01*
X97194400Y-124729267D01*
X97194400Y-125360300D01*
X97283300Y-125449200D01*
X98199200Y-125449200D01*
X98199200Y-124533300D01*
X98300800Y-124533300D01*
X98300800Y-125449200D01*
X99216700Y-125449200D01*
X99305600Y-125360300D01*
X99305600Y-124729267D01*
X99251463Y-124598569D01*
X99151431Y-124498537D01*
X99020733Y-124444400D01*
X98389700Y-124444400D01*
X98300800Y-124533300D01*
X98199200Y-124533300D01*
X98110300Y-124444400D01*
X97479267Y-124444400D01*
X97348569Y-124498537D01*
X97248537Y-124598569D01*
X97194400Y-124729267D01*
X94430600Y-124729267D01*
X94430600Y-120766552D01*
X118886242Y-120766552D01*
X119244143Y-121632739D01*
X119906276Y-122296028D01*
X120771837Y-122655440D01*
X121709052Y-122656258D01*
X122575239Y-122298357D01*
X123238528Y-121636224D01*
X123597940Y-120770663D01*
X123598758Y-119833448D01*
X123240857Y-118967261D01*
X122578724Y-118303972D01*
X121713163Y-117944560D01*
X120775948Y-117943742D01*
X119909761Y-118301643D01*
X119246472Y-118963776D01*
X118887060Y-119829337D01*
X118886242Y-120766552D01*
X94430600Y-120766552D01*
X94430600Y-116810510D01*
X97637944Y-116810510D01*
X97637944Y-118809490D01*
X97662740Y-118941267D01*
X97740620Y-119062297D01*
X97859452Y-119143491D01*
X98000510Y-119172056D01*
X99999490Y-119172056D01*
X100131267Y-119147260D01*
X100252297Y-119069380D01*
X100333491Y-118950548D01*
X100362056Y-118809490D01*
X100362056Y-118565600D01*
X106992030Y-118565600D01*
X107281186Y-118508083D01*
X107526320Y-118344290D01*
X108126897Y-117743713D01*
X128364157Y-117743713D01*
X128551115Y-118196185D01*
X128896994Y-118542669D01*
X129349139Y-118730415D01*
X129838713Y-118730843D01*
X130291185Y-118543885D01*
X130637669Y-118198006D01*
X130825415Y-117745861D01*
X130825843Y-117256287D01*
X130638885Y-116803815D01*
X130293006Y-116457331D01*
X130280600Y-116452180D01*
X130280600Y-115838713D01*
X130904157Y-115838713D01*
X131091115Y-116291185D01*
X131436994Y-116637669D01*
X131889139Y-116825415D01*
X132378713Y-116825843D01*
X132831185Y-116638885D01*
X133177669Y-116293006D01*
X133365415Y-115840861D01*
X133365843Y-115351287D01*
X133296622Y-115183760D01*
X133622651Y-114857731D01*
X133647810Y-114820078D01*
X133737670Y-114685592D01*
X133778060Y-114482540D01*
X133778060Y-114211676D01*
X134097090Y-114211676D01*
X134228867Y-114186880D01*
X134349897Y-114109000D01*
X134431091Y-113990168D01*
X134459656Y-113849110D01*
X134459656Y-113440600D01*
X135253030Y-113440600D01*
X135350541Y-113676594D01*
X135731401Y-114058120D01*
X136229273Y-114264854D01*
X136768362Y-114265325D01*
X137266594Y-114059459D01*
X137648120Y-113678599D01*
X137681197Y-113598940D01*
X145260975Y-113598940D01*
X145356585Y-114079602D01*
X145628858Y-114487087D01*
X146036343Y-114759360D01*
X146517005Y-114854970D01*
X147482995Y-114854970D01*
X147963657Y-114759360D01*
X148371142Y-114487087D01*
X148459707Y-114354540D01*
X149150010Y-114354540D01*
X149439166Y-114297023D01*
X149684300Y-114133230D01*
X155261930Y-108555600D01*
X172497530Y-108555600D01*
X175666220Y-111724290D01*
X175911354Y-111888083D01*
X176200510Y-111945600D01*
X176637944Y-111945600D01*
X176637944Y-112189490D01*
X176662740Y-112321267D01*
X176740620Y-112442297D01*
X176859452Y-112523491D01*
X177000510Y-112552056D01*
X177371413Y-112552056D01*
X177245153Y-112604617D01*
X176871947Y-112979149D01*
X176670477Y-113467991D01*
X176734758Y-113679200D01*
X177949200Y-113679200D01*
X177949200Y-113659200D01*
X178050800Y-113659200D01*
X178050800Y-113679200D01*
X179265242Y-113679200D01*
X179329523Y-113467991D01*
X179128053Y-112979149D01*
X178754847Y-112604617D01*
X178628587Y-112552056D01*
X178999490Y-112552056D01*
X179131267Y-112527260D01*
X179252297Y-112449380D01*
X179333491Y-112330548D01*
X179362056Y-112189490D01*
X179362056Y-110190510D01*
X179337260Y-110058733D01*
X179259380Y-109937703D01*
X179140548Y-109856509D01*
X178999490Y-109827944D01*
X177000510Y-109827944D01*
X176868733Y-109852740D01*
X176747703Y-109930620D01*
X176666509Y-110049452D01*
X176637944Y-110190510D01*
X176637944Y-110434400D01*
X176513490Y-110434400D01*
X173344800Y-107265710D01*
X173227147Y-107187097D01*
X173099666Y-107101917D01*
X172810510Y-107044400D01*
X167755600Y-107044400D01*
X167755600Y-106733179D01*
X176338663Y-106733179D01*
X176409182Y-106899617D01*
X176798424Y-107057234D01*
X177218354Y-107053897D01*
X177590818Y-106899617D01*
X177661337Y-106733179D01*
X177000000Y-106071842D01*
X176338663Y-106733179D01*
X167755600Y-106733179D01*
X167755600Y-105798424D01*
X175942766Y-105798424D01*
X175946103Y-106218354D01*
X176100383Y-106590818D01*
X176266821Y-106661337D01*
X176928158Y-106000000D01*
X177071842Y-106000000D01*
X177733179Y-106661337D01*
X177899617Y-106590818D01*
X178057234Y-106201576D01*
X178053897Y-105781646D01*
X177899617Y-105409182D01*
X177733179Y-105338663D01*
X177071842Y-106000000D01*
X176928158Y-106000000D01*
X176266821Y-105338663D01*
X176100383Y-105409182D01*
X175942766Y-105798424D01*
X167755600Y-105798424D01*
X167755600Y-105266821D01*
X176338663Y-105266821D01*
X177000000Y-105928158D01*
X177661337Y-105266821D01*
X177590818Y-105100383D01*
X177201576Y-104942766D01*
X176781646Y-104946103D01*
X176409182Y-105100383D01*
X176338663Y-105266821D01*
X167755600Y-105266821D01*
X167755600Y-102054002D01*
X167766594Y-102049459D01*
X168027189Y-101789318D01*
X169622524Y-101789318D01*
X169729541Y-101986872D01*
X170227077Y-102194414D01*
X170766164Y-102195759D01*
X171264730Y-101990702D01*
X171270459Y-101986872D01*
X171377476Y-101789318D01*
X170500000Y-100911842D01*
X169622524Y-101789318D01*
X168027189Y-101789318D01*
X168148120Y-101668599D01*
X168354854Y-101170727D01*
X168354910Y-101106164D01*
X169144241Y-101106164D01*
X169349298Y-101604730D01*
X169353128Y-101610459D01*
X169550682Y-101717476D01*
X170428158Y-100840000D01*
X170571842Y-100840000D01*
X171449318Y-101717476D01*
X171646872Y-101610459D01*
X171854414Y-101112923D01*
X171855759Y-100573836D01*
X171650702Y-100075270D01*
X171646872Y-100069541D01*
X171449318Y-99962524D01*
X170571842Y-100840000D01*
X170428158Y-100840000D01*
X169550682Y-99962524D01*
X169353128Y-100069541D01*
X169145586Y-100567077D01*
X169144241Y-101106164D01*
X168354910Y-101106164D01*
X168355325Y-100631638D01*
X168149459Y-100133406D01*
X167907159Y-99890682D01*
X169622524Y-99890682D01*
X170500000Y-100768158D01*
X171377476Y-99890682D01*
X171270459Y-99693128D01*
X170772923Y-99485586D01*
X170233836Y-99484241D01*
X169735270Y-99689298D01*
X169729541Y-99693128D01*
X169622524Y-99890682D01*
X167907159Y-99890682D01*
X167768599Y-99751880D01*
X167633600Y-99695824D01*
X167633600Y-98532657D01*
X167898120Y-98268599D01*
X168104854Y-97770727D01*
X168104856Y-97768362D01*
X175554675Y-97768362D01*
X175760541Y-98266594D01*
X176141401Y-98648120D01*
X176282400Y-98706668D01*
X176282400Y-99940746D01*
X176168223Y-99962230D01*
X176047193Y-100040110D01*
X175965999Y-100158942D01*
X175937434Y-100300000D01*
X175937434Y-101700000D01*
X175962230Y-101831777D01*
X176040110Y-101952807D01*
X176158942Y-102034001D01*
X176300000Y-102062566D01*
X177700000Y-102062566D01*
X177831777Y-102037770D01*
X177952807Y-101959890D01*
X178034001Y-101841058D01*
X178062566Y-101700000D01*
X178062566Y-100300000D01*
X178037770Y-100168223D01*
X177959890Y-100047193D01*
X177841058Y-99965999D01*
X177793600Y-99956389D01*
X177793600Y-98532657D01*
X178058120Y-98268599D01*
X178264854Y-97770727D01*
X178265325Y-97231638D01*
X178059459Y-96733406D01*
X177678599Y-96351880D01*
X177180727Y-96145146D01*
X176641638Y-96144675D01*
X176143406Y-96350541D01*
X175761880Y-96731401D01*
X175555146Y-97229273D01*
X175554675Y-97768362D01*
X168104856Y-97768362D01*
X168105325Y-97231638D01*
X167899459Y-96733406D01*
X167518599Y-96351880D01*
X167020727Y-96145146D01*
X166481638Y-96144675D01*
X165983406Y-96350541D01*
X165601880Y-96731401D01*
X165395146Y-97229273D01*
X165394675Y-97768362D01*
X165600541Y-98266594D01*
X165981401Y-98648120D01*
X166122400Y-98706668D01*
X166122400Y-99861353D01*
X165851880Y-100131401D01*
X165645146Y-100629273D01*
X165644675Y-101168362D01*
X165850541Y-101666594D01*
X166231401Y-102048120D01*
X166244400Y-102053518D01*
X166244400Y-107044400D01*
X154948950Y-107044400D01*
X154659795Y-107101916D01*
X154414660Y-107265710D01*
X148837030Y-112843340D01*
X148459707Y-112843340D01*
X148371142Y-112710793D01*
X147963657Y-112438520D01*
X147482995Y-112342910D01*
X146517005Y-112342910D01*
X146036343Y-112438520D01*
X145628858Y-112710793D01*
X145356585Y-113118278D01*
X145260975Y-113598940D01*
X137681197Y-113598940D01*
X137854854Y-113180727D01*
X137855325Y-112641638D01*
X137649459Y-112143406D01*
X137268599Y-111761880D01*
X136770727Y-111555146D01*
X136231638Y-111554675D01*
X135733406Y-111760541D01*
X135351880Y-112141401D01*
X135253054Y-112379400D01*
X134459656Y-112379400D01*
X134459656Y-112149850D01*
X134434860Y-112018073D01*
X134356980Y-111897043D01*
X134238148Y-111815849D01*
X134097090Y-111787284D01*
X132397830Y-111787284D01*
X132266053Y-111812080D01*
X132145023Y-111889960D01*
X132063829Y-112008792D01*
X132035264Y-112149850D01*
X132035264Y-113849110D01*
X132060060Y-113980887D01*
X132137940Y-114101917D01*
X132256772Y-114183111D01*
X132397830Y-114211676D01*
X132716860Y-114211676D01*
X132716860Y-114262758D01*
X132546326Y-114433292D01*
X132380861Y-114364585D01*
X131891287Y-114364157D01*
X131438815Y-114551115D01*
X131092331Y-114896994D01*
X130904585Y-115349139D01*
X130904157Y-115838713D01*
X130280600Y-115838713D01*
X130280600Y-114246970D01*
X130516594Y-114149459D01*
X130898120Y-113768599D01*
X131104854Y-113270727D01*
X131105325Y-112731638D01*
X130899459Y-112233406D01*
X130518599Y-111851880D01*
X130020727Y-111645146D01*
X129481638Y-111644675D01*
X128983406Y-111850541D01*
X128601880Y-112231401D01*
X128395146Y-112729273D01*
X128394675Y-113268362D01*
X128600541Y-113766594D01*
X128981401Y-114148120D01*
X129219400Y-114246946D01*
X129219400Y-116323652D01*
X128898815Y-116456115D01*
X128552331Y-116801994D01*
X128364585Y-117254139D01*
X128364157Y-117743713D01*
X108126897Y-117743713D01*
X111536830Y-114333780D01*
X111700624Y-114088645D01*
X111758140Y-113799490D01*
X111758140Y-113362056D01*
X112002030Y-113362056D01*
X112133807Y-113337260D01*
X112254837Y-113259380D01*
X112336031Y-113140548D01*
X112364596Y-112999490D01*
X112364596Y-111000510D01*
X112339800Y-110868733D01*
X112261920Y-110747703D01*
X112143088Y-110666509D01*
X112002030Y-110637944D01*
X111758140Y-110637944D01*
X111758140Y-110314002D01*
X111769134Y-110309459D01*
X112150660Y-109928599D01*
X112357394Y-109430727D01*
X112357865Y-108891638D01*
X112151999Y-108393406D01*
X111925542Y-108166552D01*
X118636242Y-108166552D01*
X118994143Y-109032739D01*
X119656276Y-109696028D01*
X120521837Y-110055440D01*
X121459052Y-110056258D01*
X122325239Y-109698357D01*
X122988528Y-109036224D01*
X123347940Y-108170663D01*
X123348758Y-107233448D01*
X122990857Y-106367261D01*
X122328724Y-105703972D01*
X121463163Y-105344560D01*
X120525948Y-105343742D01*
X119659761Y-105701643D01*
X118996472Y-106363776D01*
X118637060Y-107229337D01*
X118636242Y-108166552D01*
X111925542Y-108166552D01*
X111771139Y-108011880D01*
X111273267Y-107805146D01*
X110734178Y-107804675D01*
X110235946Y-108010541D01*
X109854420Y-108391401D01*
X109647686Y-108889273D01*
X109647215Y-109428362D01*
X109853081Y-109926594D01*
X110233941Y-110308120D01*
X110246940Y-110313518D01*
X110246940Y-110637944D01*
X110003050Y-110637944D01*
X109871273Y-110662740D01*
X109750243Y-110740620D01*
X109669049Y-110859452D01*
X109640484Y-111000510D01*
X109640484Y-112999490D01*
X109665280Y-113131267D01*
X109743160Y-113252297D01*
X109861992Y-113333491D01*
X110003050Y-113362056D01*
X110246940Y-113362056D01*
X110246940Y-113486510D01*
X106679050Y-117054400D01*
X100362056Y-117054400D01*
X100362056Y-116810510D01*
X100337260Y-116678733D01*
X100259380Y-116557703D01*
X100140548Y-116476509D01*
X99999490Y-116447944D01*
X99628587Y-116447944D01*
X99754847Y-116395383D01*
X100128053Y-116020851D01*
X100329523Y-115532009D01*
X100265242Y-115320800D01*
X99050800Y-115320800D01*
X99050800Y-115340800D01*
X98949200Y-115340800D01*
X98949200Y-115320800D01*
X97734758Y-115320800D01*
X97670477Y-115532009D01*
X97871947Y-116020851D01*
X98245153Y-116395383D01*
X98371413Y-116447944D01*
X98000510Y-116447944D01*
X97868733Y-116472740D01*
X97747703Y-116550620D01*
X97666509Y-116669452D01*
X97637944Y-116810510D01*
X94430600Y-116810510D01*
X94430600Y-112992009D01*
X97670477Y-112992009D01*
X97871947Y-113480851D01*
X98245153Y-113855383D01*
X98592545Y-114000000D01*
X98245153Y-114144617D01*
X97871947Y-114519149D01*
X97670477Y-115007991D01*
X97734758Y-115219200D01*
X98949200Y-115219200D01*
X98949200Y-114004829D01*
X98933350Y-114000000D01*
X98949200Y-113995171D01*
X98949200Y-112780800D01*
X99050800Y-112780800D01*
X99050800Y-113995171D01*
X99066650Y-114000000D01*
X99050800Y-114004829D01*
X99050800Y-115219200D01*
X100265242Y-115219200D01*
X100329523Y-115007991D01*
X100128053Y-114519149D01*
X99754847Y-114144617D01*
X99407455Y-114000000D01*
X99754847Y-113855383D01*
X100128053Y-113480851D01*
X100329523Y-112992009D01*
X100265242Y-112780800D01*
X99050800Y-112780800D01*
X98949200Y-112780800D01*
X97734758Y-112780800D01*
X97670477Y-112992009D01*
X94430600Y-112992009D01*
X94430600Y-110163452D01*
X97644910Y-110163452D01*
X97644910Y-110216548D01*
X97748060Y-110735118D01*
X98041807Y-111174741D01*
X98481430Y-111468488D01*
X98542822Y-111480700D01*
X98245153Y-111604617D01*
X97871947Y-111979149D01*
X97670477Y-112467991D01*
X97734758Y-112679200D01*
X98949200Y-112679200D01*
X98949200Y-112659200D01*
X99050800Y-112659200D01*
X99050800Y-112679200D01*
X100265242Y-112679200D01*
X100329523Y-112467991D01*
X100128053Y-111979149D01*
X99754847Y-111604617D01*
X99457178Y-111480700D01*
X99518570Y-111468488D01*
X99958193Y-111174741D01*
X100111300Y-110945600D01*
X103080070Y-110945600D01*
X104668760Y-112534290D01*
X104913895Y-112698084D01*
X105203050Y-112755600D01*
X105640484Y-112755600D01*
X105640484Y-112999490D01*
X105665280Y-113131267D01*
X105743160Y-113252297D01*
X105861992Y-113333491D01*
X106003050Y-113362056D01*
X108002030Y-113362056D01*
X108133807Y-113337260D01*
X108254837Y-113259380D01*
X108336031Y-113140548D01*
X108364596Y-112999490D01*
X108364596Y-111000510D01*
X108339800Y-110868733D01*
X108261920Y-110747703D01*
X108143088Y-110666509D01*
X108002030Y-110637944D01*
X107758140Y-110637944D01*
X107758140Y-110314002D01*
X107769134Y-110309459D01*
X108150660Y-109928599D01*
X108357394Y-109430727D01*
X108357865Y-108891638D01*
X108151999Y-108393406D01*
X107771139Y-108011880D01*
X107273267Y-107805146D01*
X106734178Y-107804675D01*
X106235946Y-108010541D01*
X105854420Y-108391401D01*
X105647686Y-108889273D01*
X105647215Y-109428362D01*
X105853081Y-109926594D01*
X106233941Y-110308120D01*
X106246940Y-110313518D01*
X106246940Y-110637944D01*
X106003050Y-110637944D01*
X105871273Y-110662740D01*
X105750243Y-110740620D01*
X105669049Y-110859452D01*
X105640484Y-111000510D01*
X105640484Y-111244400D01*
X105516030Y-111244400D01*
X103927340Y-109655710D01*
X103910825Y-109644675D01*
X103682206Y-109491917D01*
X103393050Y-109434400D01*
X100111300Y-109434400D01*
X99958193Y-109205259D01*
X99518570Y-108911512D01*
X99000000Y-108808362D01*
X98481430Y-108911512D01*
X98041807Y-109205259D01*
X97748060Y-109644882D01*
X97644910Y-110163452D01*
X94430600Y-110163452D01*
X94430600Y-103789318D01*
X128872524Y-103789318D01*
X128979541Y-103986872D01*
X129477077Y-104194414D01*
X130016164Y-104195759D01*
X130514730Y-103990702D01*
X130520459Y-103986872D01*
X130627476Y-103789318D01*
X129750000Y-102911842D01*
X128872524Y-103789318D01*
X94430600Y-103789318D01*
X94430600Y-103106164D01*
X128394241Y-103106164D01*
X128599298Y-103604730D01*
X128603128Y-103610459D01*
X128800682Y-103717476D01*
X129678158Y-102840000D01*
X129821842Y-102840000D01*
X130699318Y-103717476D01*
X130767278Y-103680661D01*
X132478121Y-103680661D01*
X132566880Y-103862644D01*
X133010234Y-104045207D01*
X133489703Y-104044209D01*
X133928040Y-103862644D01*
X134016799Y-103680661D01*
X133247460Y-102911322D01*
X132478121Y-103680661D01*
X130767278Y-103680661D01*
X130896872Y-103610459D01*
X131104414Y-103112923D01*
X131105688Y-102602254D01*
X132041733Y-102602254D01*
X132042731Y-103081723D01*
X132224296Y-103520060D01*
X132406279Y-103608819D01*
X133175618Y-102839480D01*
X133319302Y-102839480D01*
X134088641Y-103608819D01*
X134270624Y-103520060D01*
X134453187Y-103076706D01*
X134452189Y-102597237D01*
X134270624Y-102158900D01*
X134088641Y-102070141D01*
X133319302Y-102839480D01*
X133175618Y-102839480D01*
X132406279Y-102070141D01*
X132224296Y-102158900D01*
X132041733Y-102602254D01*
X131105688Y-102602254D01*
X131105759Y-102573836D01*
X130900702Y-102075270D01*
X130896872Y-102069541D01*
X130765359Y-101998299D01*
X132478121Y-101998299D01*
X133247460Y-102767638D01*
X134016799Y-101998299D01*
X133928040Y-101816316D01*
X133484686Y-101633753D01*
X133005217Y-101634751D01*
X132566880Y-101816316D01*
X132478121Y-101998299D01*
X130765359Y-101998299D01*
X130699318Y-101962524D01*
X129821842Y-102840000D01*
X129678158Y-102840000D01*
X128800682Y-101962524D01*
X128603128Y-102069541D01*
X128395586Y-102567077D01*
X128394241Y-103106164D01*
X94430600Y-103106164D01*
X94430600Y-101890682D01*
X128872524Y-101890682D01*
X129750000Y-102768158D01*
X130627476Y-101890682D01*
X130520459Y-101693128D01*
X130022923Y-101485586D01*
X129483836Y-101484241D01*
X128985270Y-101689298D01*
X128979541Y-101693128D01*
X128872524Y-101890682D01*
X94430600Y-101890682D01*
X94430600Y-99483179D01*
X97588663Y-99483179D01*
X97659182Y-99649617D01*
X98048424Y-99807234D01*
X98468354Y-99803897D01*
X98840818Y-99649617D01*
X98911337Y-99483179D01*
X98250000Y-98821842D01*
X97588663Y-99483179D01*
X94430600Y-99483179D01*
X94430600Y-98548424D01*
X97192766Y-98548424D01*
X97196103Y-98968354D01*
X97350383Y-99340818D01*
X97516821Y-99411337D01*
X98178158Y-98750000D01*
X98321842Y-98750000D01*
X98983179Y-99411337D01*
X99149617Y-99340818D01*
X99307234Y-98951576D01*
X99303897Y-98531646D01*
X99149617Y-98159182D01*
X98983179Y-98088663D01*
X98321842Y-98750000D01*
X98178158Y-98750000D01*
X97516821Y-98088663D01*
X97350383Y-98159182D01*
X97192766Y-98548424D01*
X94430600Y-98548424D01*
X94430600Y-98016821D01*
X97588663Y-98016821D01*
X98250000Y-98678158D01*
X98878158Y-98050000D01*
X102187434Y-98050000D01*
X102187434Y-99450000D01*
X102212230Y-99581777D01*
X102290110Y-99702807D01*
X102408942Y-99784001D01*
X102550000Y-99812566D01*
X103950000Y-99812566D01*
X104081777Y-99787770D01*
X104202807Y-99709890D01*
X104284001Y-99591058D01*
X104301307Y-99505600D01*
X105640484Y-99505600D01*
X105640484Y-99999490D01*
X105665280Y-100131267D01*
X105743160Y-100252297D01*
X105861992Y-100333491D01*
X106003050Y-100362056D01*
X108002030Y-100362056D01*
X108133807Y-100337260D01*
X108254837Y-100259380D01*
X108336031Y-100140548D01*
X108364596Y-99999490D01*
X108364596Y-99755600D01*
X109640484Y-99755600D01*
X109640484Y-99999490D01*
X109665280Y-100131267D01*
X109743160Y-100252297D01*
X109861992Y-100333491D01*
X110003050Y-100362056D01*
X112002030Y-100362056D01*
X112133807Y-100337260D01*
X112254837Y-100259380D01*
X112336031Y-100140548D01*
X112364596Y-99999490D01*
X112364596Y-99755600D01*
X113750000Y-99755600D01*
X114039156Y-99698083D01*
X114284290Y-99534290D01*
X115522980Y-98295600D01*
X116147606Y-98295600D01*
X116222970Y-98408391D01*
X116621391Y-98674607D01*
X117091361Y-98768090D01*
X117908639Y-98768090D01*
X118378609Y-98674607D01*
X118777030Y-98408391D01*
X118852394Y-98295600D01*
X120736700Y-98295600D01*
X122975390Y-100534290D01*
X123220524Y-100698083D01*
X123509680Y-100755600D01*
X125635404Y-100755600D01*
X125635404Y-100999490D01*
X125660200Y-101131267D01*
X125738080Y-101252297D01*
X125856912Y-101333491D01*
X125997970Y-101362056D01*
X127996950Y-101362056D01*
X128128727Y-101337260D01*
X128249757Y-101259380D01*
X128330951Y-101140548D01*
X128359516Y-100999490D01*
X128359516Y-99000510D01*
X128334720Y-98868733D01*
X128256840Y-98747703D01*
X128138008Y-98666509D01*
X127996950Y-98637944D01*
X125997970Y-98637944D01*
X125866193Y-98662740D01*
X125745163Y-98740620D01*
X125663969Y-98859452D01*
X125635404Y-99000510D01*
X125635404Y-99244400D01*
X123822660Y-99244400D01*
X121583970Y-97005710D01*
X121338836Y-96841917D01*
X121049680Y-96784400D01*
X118852394Y-96784400D01*
X118777030Y-96671609D01*
X118378609Y-96405393D01*
X117908639Y-96311910D01*
X117091361Y-96311910D01*
X116621391Y-96405393D01*
X116222970Y-96671609D01*
X116147606Y-96784400D01*
X115210000Y-96784400D01*
X114920845Y-96841916D01*
X114675710Y-97005710D01*
X113437020Y-98244400D01*
X112364596Y-98244400D01*
X112364596Y-98000510D01*
X112339800Y-97868733D01*
X112261920Y-97747703D01*
X112143088Y-97666509D01*
X112002030Y-97637944D01*
X110003050Y-97637944D01*
X109871273Y-97662740D01*
X109750243Y-97740620D01*
X109669049Y-97859452D01*
X109640484Y-98000510D01*
X109640484Y-98244400D01*
X108364596Y-98244400D01*
X108364596Y-98000510D01*
X108339800Y-97868733D01*
X108261920Y-97747703D01*
X108143088Y-97666509D01*
X108002030Y-97637944D01*
X107758140Y-97637944D01*
X107758140Y-95242325D01*
X115918839Y-95242325D01*
X115968859Y-95423522D01*
X116218870Y-95833367D01*
X116606691Y-96116340D01*
X117073280Y-96229360D01*
X117449200Y-96229360D01*
X117449200Y-95050800D01*
X117550800Y-95050800D01*
X117550800Y-96229360D01*
X117926720Y-96229360D01*
X118393309Y-96116340D01*
X118781130Y-95833367D01*
X119031141Y-95423522D01*
X119081161Y-95242325D01*
X119015248Y-95050800D01*
X117550800Y-95050800D01*
X117449200Y-95050800D01*
X115984752Y-95050800D01*
X115918839Y-95242325D01*
X107758140Y-95242325D01*
X107758140Y-94757675D01*
X115918839Y-94757675D01*
X115984752Y-94949200D01*
X117449200Y-94949200D01*
X117449200Y-93770640D01*
X117550800Y-93770640D01*
X117550800Y-94949200D01*
X119015248Y-94949200D01*
X119081161Y-94757675D01*
X119031141Y-94576478D01*
X118781130Y-94166633D01*
X118393309Y-93883660D01*
X117926720Y-93770640D01*
X117550800Y-93770640D01*
X117449200Y-93770640D01*
X117073280Y-93770640D01*
X116606691Y-93883660D01*
X116218870Y-94166633D01*
X115968859Y-94576478D01*
X115918839Y-94757675D01*
X107758140Y-94757675D01*
X107758140Y-92460000D01*
X115863271Y-92460000D01*
X115956850Y-92930456D01*
X116223342Y-93329289D01*
X116622175Y-93595781D01*
X117092631Y-93689360D01*
X117907369Y-93689360D01*
X118377825Y-93595781D01*
X118776658Y-93329289D01*
X118852623Y-93215600D01*
X122740000Y-93215600D01*
X123029156Y-93158083D01*
X123274290Y-92994290D01*
X125672980Y-90595600D01*
X125843458Y-90595600D01*
X125848001Y-90606594D01*
X126228861Y-90988120D01*
X126241860Y-90993518D01*
X126241860Y-93247460D01*
X126299377Y-93536616D01*
X126338910Y-93595781D01*
X126463170Y-93781750D01*
X135149708Y-102468288D01*
X135145146Y-102479273D01*
X135144675Y-103018362D01*
X135350541Y-103516594D01*
X135731401Y-103898120D01*
X135744400Y-103903518D01*
X135744400Y-108250000D01*
X135801917Y-108539156D01*
X135965710Y-108784290D01*
X139615390Y-112433970D01*
X139860524Y-112597763D01*
X140149680Y-112655280D01*
X140460293Y-112655280D01*
X140548858Y-112787827D01*
X140956343Y-113060100D01*
X141437005Y-113155710D01*
X142402995Y-113155710D01*
X142883657Y-113060100D01*
X143291142Y-112787827D01*
X143563415Y-112380342D01*
X143659025Y-111899680D01*
X143563415Y-111419018D01*
X143291142Y-111011533D01*
X142883657Y-110739260D01*
X142402995Y-110643650D01*
X141437005Y-110643650D01*
X140956343Y-110739260D01*
X140548858Y-111011533D01*
X140461241Y-111142661D01*
X139519000Y-110200420D01*
X145260975Y-110200420D01*
X145356585Y-110681082D01*
X145628858Y-111088567D01*
X146036343Y-111360840D01*
X146517005Y-111456450D01*
X147482995Y-111456450D01*
X147963657Y-111360840D01*
X148371142Y-111088567D01*
X148643415Y-110681082D01*
X148739025Y-110200420D01*
X148643415Y-109719758D01*
X148371142Y-109312273D01*
X147963657Y-109040000D01*
X147482995Y-108944390D01*
X146517005Y-108944390D01*
X146036343Y-109040000D01*
X145628858Y-109312273D01*
X145356585Y-109719758D01*
X145260975Y-110200420D01*
X139519000Y-110200420D01*
X137819740Y-108501160D01*
X140180975Y-108501160D01*
X140276585Y-108981822D01*
X140548858Y-109389307D01*
X140956343Y-109661580D01*
X141437005Y-109757190D01*
X142402995Y-109757190D01*
X142883657Y-109661580D01*
X143291142Y-109389307D01*
X143563415Y-108981822D01*
X143659025Y-108501160D01*
X143563415Y-108020498D01*
X143291142Y-107613013D01*
X142883657Y-107340740D01*
X142402995Y-107245130D01*
X141437005Y-107245130D01*
X140956343Y-107340740D01*
X140548858Y-107613013D01*
X140276585Y-108020498D01*
X140180975Y-108501160D01*
X137819740Y-108501160D01*
X137255600Y-107937020D01*
X137255600Y-104871859D01*
X149499240Y-104871859D01*
X149937925Y-105933557D01*
X150749511Y-106746560D01*
X151810441Y-107187097D01*
X152959199Y-107188100D01*
X154020897Y-106749415D01*
X154833900Y-105937829D01*
X155274437Y-104876899D01*
X155275440Y-103728141D01*
X154836755Y-102666443D01*
X154025169Y-101853440D01*
X152964239Y-101412903D01*
X151815481Y-101411900D01*
X150753783Y-101850585D01*
X149940780Y-102662171D01*
X149500243Y-103723101D01*
X149499240Y-104871859D01*
X137255600Y-104871859D01*
X137255600Y-103904002D01*
X137266594Y-103899459D01*
X137648120Y-103518599D01*
X137854854Y-103020727D01*
X137855325Y-102481638D01*
X137649459Y-101983406D01*
X137268599Y-101601880D01*
X136770727Y-101395146D01*
X136231638Y-101394675D01*
X136218630Y-101400050D01*
X130551759Y-95733179D01*
X133338663Y-95733179D01*
X133409182Y-95899617D01*
X133798424Y-96057234D01*
X134218354Y-96053897D01*
X134590818Y-95899617D01*
X134661337Y-95733179D01*
X134000000Y-95071842D01*
X133338663Y-95733179D01*
X130551759Y-95733179D01*
X129617004Y-94798424D01*
X132942766Y-94798424D01*
X132946103Y-95218354D01*
X133100383Y-95590818D01*
X133266821Y-95661337D01*
X133928158Y-95000000D01*
X134071842Y-95000000D01*
X134733179Y-95661337D01*
X134899617Y-95590818D01*
X135057234Y-95201576D01*
X135053897Y-94781646D01*
X134899617Y-94409182D01*
X134733179Y-94338663D01*
X134071842Y-95000000D01*
X133928158Y-95000000D01*
X133266821Y-94338663D01*
X133100383Y-94409182D01*
X132942766Y-94798424D01*
X129617004Y-94798424D01*
X129085401Y-94266821D01*
X133338663Y-94266821D01*
X134000000Y-94928158D01*
X134661337Y-94266821D01*
X134590818Y-94100383D01*
X134201576Y-93942766D01*
X133781646Y-93946103D01*
X133409182Y-94100383D01*
X133338663Y-94266821D01*
X129085401Y-94266821D01*
X127753060Y-92934480D01*
X127753060Y-90994002D01*
X127764054Y-90989459D01*
X128145580Y-90608599D01*
X128150978Y-90595600D01*
X132937434Y-90595600D01*
X132937434Y-90700000D01*
X132962230Y-90831777D01*
X133040110Y-90952807D01*
X133158942Y-91034001D01*
X133300000Y-91062566D01*
X134700000Y-91062566D01*
X134831777Y-91037770D01*
X134952807Y-90959890D01*
X135034001Y-90841058D01*
X135051307Y-90755600D01*
X137200000Y-90755600D01*
X137489156Y-90698083D01*
X137734290Y-90534290D01*
X139012980Y-89255600D01*
X142888488Y-89255600D01*
X142912230Y-89381777D01*
X142990110Y-89502807D01*
X143108942Y-89584001D01*
X143250000Y-89612566D01*
X144750000Y-89612566D01*
X144881777Y-89587770D01*
X145002807Y-89509890D01*
X145084001Y-89391058D01*
X145112566Y-89250000D01*
X145112566Y-88456014D01*
X147724290Y-85844290D01*
X147888084Y-85599155D01*
X147945601Y-85310000D01*
X147945600Y-85309995D01*
X147945600Y-76362056D01*
X148189490Y-76362056D01*
X148321267Y-76337260D01*
X148442297Y-76259380D01*
X148523491Y-76140548D01*
X148552056Y-75999490D01*
X148552056Y-75628587D01*
X148604617Y-75754847D01*
X148979149Y-76128053D01*
X149467991Y-76329523D01*
X149679200Y-76265242D01*
X149679200Y-75050800D01*
X149780800Y-75050800D01*
X149780800Y-76265242D01*
X149992009Y-76329523D01*
X150480851Y-76128053D01*
X150855383Y-75754847D01*
X151000000Y-75407455D01*
X151144617Y-75754847D01*
X151519149Y-76128053D01*
X152007991Y-76329523D01*
X152219200Y-76265242D01*
X152219200Y-75050800D01*
X151004829Y-75050800D01*
X151000000Y-75066650D01*
X150995171Y-75050800D01*
X149780800Y-75050800D01*
X149679200Y-75050800D01*
X149659200Y-75050800D01*
X149659200Y-74949200D01*
X149679200Y-74949200D01*
X149679200Y-73734758D01*
X149780800Y-73734758D01*
X149780800Y-74949200D01*
X150995171Y-74949200D01*
X151000000Y-74933350D01*
X151004829Y-74949200D01*
X152219200Y-74949200D01*
X152219200Y-73734758D01*
X152320800Y-73734758D01*
X152320800Y-74949200D01*
X152340800Y-74949200D01*
X152340800Y-75050800D01*
X152320800Y-75050800D01*
X152320800Y-76265242D01*
X152532009Y-76329523D01*
X153020851Y-76128053D01*
X153395383Y-75754847D01*
X153519300Y-75457178D01*
X153531512Y-75518570D01*
X153825259Y-75958193D01*
X154054400Y-76111300D01*
X154054400Y-85310000D01*
X154111917Y-85599156D01*
X154275710Y-85844290D01*
X156894431Y-88463011D01*
X156894208Y-88718953D01*
X157062171Y-89125454D01*
X157372910Y-89436736D01*
X157779118Y-89605408D01*
X158218953Y-89605792D01*
X158625454Y-89437829D01*
X158936736Y-89127090D01*
X159105408Y-88720882D01*
X159105792Y-88281047D01*
X158937829Y-87874546D01*
X158627090Y-87563264D01*
X158220882Y-87394592D01*
X157962947Y-87394367D01*
X155565600Y-84997020D01*
X155565600Y-83639700D01*
X156894400Y-83639700D01*
X156894400Y-84320733D01*
X156948537Y-84451431D01*
X157048569Y-84551463D01*
X157179267Y-84605600D01*
X157860300Y-84605600D01*
X157949200Y-84516700D01*
X157949200Y-83550800D01*
X158050800Y-83550800D01*
X158050800Y-84516700D01*
X158139700Y-84605600D01*
X158820733Y-84605600D01*
X158951431Y-84551463D01*
X159051463Y-84451431D01*
X159105600Y-84320733D01*
X159105600Y-83639700D01*
X159016700Y-83550800D01*
X158050800Y-83550800D01*
X157949200Y-83550800D01*
X156983300Y-83550800D01*
X156894400Y-83639700D01*
X155565600Y-83639700D01*
X155565600Y-82679267D01*
X156894400Y-82679267D01*
X156894400Y-83360300D01*
X156983300Y-83449200D01*
X157949200Y-83449200D01*
X157949200Y-82483300D01*
X158050800Y-82483300D01*
X158050800Y-83449200D01*
X159016700Y-83449200D01*
X159105600Y-83360300D01*
X159105600Y-82679267D01*
X159051463Y-82548569D01*
X158951431Y-82448537D01*
X158820733Y-82394400D01*
X158139700Y-82394400D01*
X158050800Y-82483300D01*
X157949200Y-82483300D01*
X157860300Y-82394400D01*
X157179267Y-82394400D01*
X157048569Y-82448537D01*
X156948537Y-82548569D01*
X156894400Y-82679267D01*
X155565600Y-82679267D01*
X155565600Y-77724350D01*
X172341766Y-77724350D01*
X172897429Y-79069157D01*
X173925431Y-80098955D01*
X175269266Y-80656964D01*
X176724350Y-80658234D01*
X178069157Y-80102571D01*
X179098955Y-79074569D01*
X179656964Y-77730734D01*
X179658234Y-76275650D01*
X179102571Y-74930843D01*
X178074569Y-73901045D01*
X176730734Y-73343036D01*
X175275650Y-73341766D01*
X173930843Y-73897429D01*
X172901045Y-74925431D01*
X172343036Y-76269266D01*
X172341766Y-77724350D01*
X155565600Y-77724350D01*
X155565600Y-76111300D01*
X155794741Y-75958193D01*
X156088488Y-75518570D01*
X156191638Y-75000000D01*
X156088488Y-74481430D01*
X155794741Y-74041807D01*
X155355118Y-73748060D01*
X154836548Y-73644910D01*
X154783452Y-73644910D01*
X154264882Y-73748060D01*
X153825259Y-74041807D01*
X153531512Y-74481430D01*
X153519300Y-74542822D01*
X153395383Y-74245153D01*
X153020851Y-73871947D01*
X152532009Y-73670477D01*
X152320800Y-73734758D01*
X152219200Y-73734758D01*
X152007991Y-73670477D01*
X151519149Y-73871947D01*
X151144617Y-74245153D01*
X151000000Y-74592545D01*
X150855383Y-74245153D01*
X150480851Y-73871947D01*
X149992009Y-73670477D01*
X149780800Y-73734758D01*
X149679200Y-73734758D01*
X149467991Y-73670477D01*
X148979149Y-73871947D01*
X148604617Y-74245153D01*
X148552056Y-74371413D01*
X148552056Y-74000510D01*
X148527260Y-73868733D01*
X148449380Y-73747703D01*
X148330548Y-73666509D01*
X148189490Y-73637944D01*
X146190510Y-73637944D01*
X146058733Y-73662740D01*
X145937703Y-73740620D01*
X145856509Y-73859452D01*
X145827944Y-74000510D01*
X145827944Y-75999490D01*
X145852740Y-76131267D01*
X145930620Y-76252297D01*
X146049452Y-76333491D01*
X146190510Y-76362056D01*
X146434400Y-76362056D01*
X146434400Y-84997020D01*
X144043986Y-87387434D01*
X143250000Y-87387434D01*
X143118223Y-87412230D01*
X142997193Y-87490110D01*
X142915999Y-87608942D01*
X142888568Y-87744400D01*
X138700000Y-87744400D01*
X138410844Y-87801917D01*
X138302147Y-87874546D01*
X138165710Y-87965710D01*
X136887020Y-89244400D01*
X135052104Y-89244400D01*
X135037770Y-89168223D01*
X134959890Y-89047193D01*
X134841058Y-88965999D01*
X134753060Y-88948179D01*
X134753060Y-88362056D01*
X134996950Y-88362056D01*
X135128727Y-88337260D01*
X135249757Y-88259380D01*
X135330951Y-88140548D01*
X135359516Y-87999490D01*
X135359516Y-86000510D01*
X135334720Y-85868733D01*
X135256840Y-85747703D01*
X135138008Y-85666509D01*
X134996950Y-85637944D01*
X132997970Y-85637944D01*
X132866193Y-85662740D01*
X132745163Y-85740620D01*
X132663969Y-85859452D01*
X132635404Y-86000510D01*
X132635404Y-87999490D01*
X132660200Y-88131267D01*
X132738080Y-88252297D01*
X132856912Y-88333491D01*
X132997970Y-88362056D01*
X133241860Y-88362056D01*
X133241860Y-88948374D01*
X133168223Y-88962230D01*
X133047193Y-89040110D01*
X133016931Y-89084400D01*
X128151462Y-89084400D01*
X128146919Y-89073406D01*
X127766059Y-88691880D01*
X127268187Y-88485146D01*
X126729098Y-88484675D01*
X126230866Y-88690541D01*
X125849340Y-89071401D01*
X125843942Y-89084400D01*
X125360000Y-89084400D01*
X125070845Y-89141916D01*
X124825710Y-89305710D01*
X122427020Y-91704400D01*
X118852623Y-91704400D01*
X118776658Y-91590711D01*
X118377825Y-91324219D01*
X117907369Y-91230640D01*
X117092631Y-91230640D01*
X116622175Y-91324219D01*
X116223342Y-91590711D01*
X115956850Y-91989544D01*
X115863271Y-92460000D01*
X107758140Y-92460000D01*
X107758140Y-91002085D01*
X107834001Y-90891058D01*
X107862566Y-90750000D01*
X107862566Y-89250000D01*
X107837770Y-89118223D01*
X107759890Y-88997193D01*
X107641058Y-88915999D01*
X107500000Y-88887434D01*
X106000000Y-88887434D01*
X105868223Y-88912230D01*
X105747193Y-88990110D01*
X105665999Y-89108942D01*
X105637434Y-89250000D01*
X105637434Y-90750000D01*
X105662230Y-90881777D01*
X105740110Y-91002807D01*
X105858942Y-91084001D01*
X106000000Y-91112566D01*
X106246940Y-91112566D01*
X106246940Y-97637944D01*
X106003050Y-97637944D01*
X105871273Y-97662740D01*
X105750243Y-97740620D01*
X105669049Y-97859452D01*
X105641721Y-97994400D01*
X104302104Y-97994400D01*
X104287770Y-97918223D01*
X104209890Y-97797193D01*
X104091058Y-97715999D01*
X103950000Y-97687434D01*
X102550000Y-97687434D01*
X102418223Y-97712230D01*
X102297193Y-97790110D01*
X102215999Y-97908942D01*
X102187434Y-98050000D01*
X98878158Y-98050000D01*
X98911337Y-98016821D01*
X98840818Y-97850383D01*
X98451576Y-97692766D01*
X98031646Y-97696103D01*
X97659182Y-97850383D01*
X97588663Y-98016821D01*
X94430600Y-98016821D01*
X94430600Y-85769273D01*
X106052569Y-85769273D01*
X106129184Y-85940906D01*
X106536510Y-86106860D01*
X106976338Y-86104304D01*
X107370816Y-85940906D01*
X107447431Y-85769273D01*
X106750000Y-85071842D01*
X106052569Y-85769273D01*
X94430600Y-85769273D01*
X94430600Y-84786510D01*
X105643140Y-84786510D01*
X105645696Y-85226338D01*
X105809094Y-85620816D01*
X105980727Y-85697431D01*
X106678158Y-85000000D01*
X106821842Y-85000000D01*
X107519273Y-85697431D01*
X107690906Y-85620816D01*
X107856860Y-85213490D01*
X107854304Y-84773662D01*
X107690906Y-84379184D01*
X107519273Y-84302569D01*
X106821842Y-85000000D01*
X106678158Y-85000000D01*
X105980727Y-84302569D01*
X105809094Y-84379184D01*
X105643140Y-84786510D01*
X94430600Y-84786510D01*
X94430600Y-84230727D01*
X106052569Y-84230727D01*
X106750000Y-84928158D01*
X107447431Y-84230727D01*
X107370816Y-84059094D01*
X106963490Y-83893140D01*
X106523662Y-83895696D01*
X106129184Y-84059094D01*
X106052569Y-84230727D01*
X94430600Y-84230727D01*
X94430600Y-82766552D01*
X118636242Y-82766552D01*
X118994143Y-83632739D01*
X119656276Y-84296028D01*
X120521837Y-84655440D01*
X121459052Y-84656258D01*
X122325239Y-84298357D01*
X122354373Y-84269273D01*
X143302569Y-84269273D01*
X143379184Y-84440906D01*
X143786510Y-84606860D01*
X144226338Y-84604304D01*
X144620816Y-84440906D01*
X144697431Y-84269273D01*
X144000000Y-83571842D01*
X143302569Y-84269273D01*
X122354373Y-84269273D01*
X122988528Y-83636224D01*
X123133741Y-83286510D01*
X142893140Y-83286510D01*
X142895696Y-83726338D01*
X143059094Y-84120816D01*
X143230727Y-84197431D01*
X143928158Y-83500000D01*
X144071842Y-83500000D01*
X144769273Y-84197431D01*
X144940906Y-84120816D01*
X145106860Y-83713490D01*
X145104304Y-83273662D01*
X144940906Y-82879184D01*
X144769273Y-82802569D01*
X144071842Y-83500000D01*
X143928158Y-83500000D01*
X143230727Y-82802569D01*
X143059094Y-82879184D01*
X142893140Y-83286510D01*
X123133741Y-83286510D01*
X123347940Y-82770663D01*
X123347974Y-82730727D01*
X143302569Y-82730727D01*
X144000000Y-83428158D01*
X144697431Y-82730727D01*
X144620816Y-82559094D01*
X144213490Y-82393140D01*
X143773662Y-82395696D01*
X143379184Y-82559094D01*
X143302569Y-82730727D01*
X123347974Y-82730727D01*
X123348758Y-81833448D01*
X122990857Y-80967261D01*
X122328724Y-80303972D01*
X121463163Y-79944560D01*
X120525948Y-79943742D01*
X119659761Y-80301643D01*
X118996472Y-80963776D01*
X118637060Y-81829337D01*
X118636242Y-82766552D01*
X94430600Y-82766552D01*
X94430600Y-77724350D01*
X96341766Y-77724350D01*
X96897429Y-79069157D01*
X97925431Y-80098955D01*
X99269266Y-80656964D01*
X100724350Y-80658234D01*
X102069157Y-80102571D01*
X103098955Y-79074569D01*
X103632637Y-77789318D01*
X133119984Y-77789318D01*
X133227001Y-77986872D01*
X133724537Y-78194414D01*
X134263624Y-78195759D01*
X134762190Y-77990702D01*
X134767919Y-77986872D01*
X134874936Y-77789318D01*
X133997460Y-76911842D01*
X133119984Y-77789318D01*
X103632637Y-77789318D01*
X103656964Y-77730734D01*
X103657509Y-77106164D01*
X132641701Y-77106164D01*
X132846758Y-77604730D01*
X132850588Y-77610459D01*
X133048142Y-77717476D01*
X133925618Y-76840000D01*
X134069302Y-76840000D01*
X134946778Y-77717476D01*
X135144332Y-77610459D01*
X135351874Y-77112923D01*
X135353219Y-76573836D01*
X135148162Y-76075270D01*
X135144332Y-76069541D01*
X134946778Y-75962524D01*
X134069302Y-76840000D01*
X133925618Y-76840000D01*
X133048142Y-75962524D01*
X132850588Y-76069541D01*
X132643046Y-76567077D01*
X132641701Y-77106164D01*
X103657509Y-77106164D01*
X103658234Y-76275650D01*
X103499169Y-75890682D01*
X133119984Y-75890682D01*
X133997460Y-76768158D01*
X134874936Y-75890682D01*
X134767919Y-75693128D01*
X134270383Y-75485586D01*
X133731296Y-75484241D01*
X133232730Y-75689298D01*
X133227001Y-75693128D01*
X133119984Y-75890682D01*
X103499169Y-75890682D01*
X103102571Y-74930843D01*
X102074569Y-73901045D01*
X100730734Y-73343036D01*
X99275650Y-73341766D01*
X97930843Y-73897429D01*
X96901045Y-74925431D01*
X96343036Y-76269266D01*
X96341766Y-77724350D01*
X94430600Y-77724350D01*
X94430600Y-71430600D01*
X181569400Y-71430600D01*
X181569400Y-151569400D01*
X181569400Y-151569400D01*
G37*
X181569400Y-151569400D02*
X94430600Y-151569400D01*
X94430600Y-146724350D01*
X96341766Y-146724350D01*
X96897429Y-148069157D01*
X97925431Y-149098955D01*
X99269266Y-149656964D01*
X100724350Y-149658234D01*
X102069157Y-149102571D01*
X103098955Y-148074569D01*
X103656964Y-146730734D01*
X103657456Y-146166552D01*
X118886242Y-146166552D01*
X119244143Y-147032739D01*
X119906276Y-147696028D01*
X120771837Y-148055440D01*
X121709052Y-148056258D01*
X122575239Y-147698357D01*
X123238528Y-147036224D01*
X123368029Y-146724350D01*
X172341766Y-146724350D01*
X172897429Y-148069157D01*
X173925431Y-149098955D01*
X175269266Y-149656964D01*
X176724350Y-149658234D01*
X178069157Y-149102571D01*
X179098955Y-148074569D01*
X179656964Y-146730734D01*
X179658234Y-145275650D01*
X179102571Y-143930843D01*
X178074569Y-142901045D01*
X176730734Y-142343036D01*
X175275650Y-142341766D01*
X173930843Y-142897429D01*
X172901045Y-143925431D01*
X172343036Y-145269266D01*
X172341766Y-146724350D01*
X123368029Y-146724350D01*
X123597940Y-146170663D01*
X123598758Y-145233448D01*
X123240857Y-144367261D01*
X122578724Y-143703972D01*
X121713163Y-143344560D01*
X120775948Y-143343742D01*
X119909761Y-143701643D01*
X119246472Y-144363776D01*
X118887060Y-145229337D01*
X118886242Y-146166552D01*
X103657456Y-146166552D01*
X103658234Y-145275650D01*
X103102571Y-143930843D01*
X102472829Y-143300000D01*
X133937434Y-143300000D01*
X133937434Y-144700000D01*
X133962230Y-144831777D01*
X134040110Y-144952807D01*
X134158942Y-145034001D01*
X134300000Y-145062566D01*
X135700000Y-145062566D01*
X135831777Y-145037770D01*
X135952807Y-144959890D01*
X136034001Y-144841058D01*
X136062566Y-144700000D01*
X136062566Y-144495476D01*
X136104584Y-144597168D01*
X136401270Y-144894372D01*
X136789107Y-145055416D01*
X137209051Y-145055782D01*
X137597168Y-144895416D01*
X137737228Y-144755600D01*
X140069891Y-144755600D01*
X140205259Y-144958193D01*
X140644882Y-145251940D01*
X141163452Y-145355090D01*
X141216548Y-145355090D01*
X141735118Y-145251940D01*
X142174741Y-144958193D01*
X142468488Y-144518570D01*
X142480700Y-144457178D01*
X142604617Y-144754847D01*
X142979149Y-145128053D01*
X143467991Y-145329523D01*
X143679200Y-145265242D01*
X143679200Y-144050800D01*
X143780800Y-144050800D01*
X143780800Y-145265242D01*
X143992009Y-145329523D01*
X144480851Y-145128053D01*
X144855383Y-144754847D01*
X145000000Y-144407455D01*
X145144617Y-144754847D01*
X145519149Y-145128053D01*
X146007991Y-145329523D01*
X146219200Y-145265242D01*
X146219200Y-144050800D01*
X145004829Y-144050800D01*
X145000000Y-144066650D01*
X144995171Y-144050800D01*
X143780800Y-144050800D01*
X143679200Y-144050800D01*
X143659200Y-144050800D01*
X143659200Y-143949200D01*
X143679200Y-143949200D01*
X143679200Y-142734758D01*
X143780800Y-142734758D01*
X143780800Y-143949200D01*
X144995171Y-143949200D01*
X145000000Y-143933350D01*
X145004829Y-143949200D01*
X146219200Y-143949200D01*
X146219200Y-142734758D01*
X146007991Y-142670477D01*
X145519149Y-142871947D01*
X145144617Y-143245153D01*
X145000000Y-143592545D01*
X144855383Y-143245153D01*
X144480851Y-142871947D01*
X143992009Y-142670477D01*
X143780800Y-142734758D01*
X143679200Y-142734758D01*
X143467991Y-142670477D01*
X142979149Y-142871947D01*
X142604617Y-143245153D01*
X142480700Y-143542822D01*
X142468488Y-143481430D01*
X142174741Y-143041807D01*
X141735118Y-142748060D01*
X141216548Y-142644910D01*
X141163452Y-142644910D01*
X140644882Y-142748060D01*
X140205259Y-143041807D01*
X140069891Y-143244400D01*
X137737260Y-143244400D01*
X137598730Y-143105628D01*
X137210893Y-142944584D01*
X136790949Y-142944218D01*
X136402832Y-143104584D01*
X136105628Y-143401270D01*
X136062566Y-143504975D01*
X136062566Y-143300000D01*
X136037770Y-143168223D01*
X135959890Y-143047193D01*
X135841058Y-142965999D01*
X135755600Y-142948693D01*
X135755600Y-142812980D01*
X139284290Y-139284290D01*
X139448083Y-139039156D01*
X139505600Y-138750000D01*
X139505600Y-125498840D01*
X140180975Y-125498840D01*
X140276585Y-125979502D01*
X140548858Y-126386987D01*
X140956343Y-126659260D01*
X141164400Y-126700645D01*
X141164400Y-128320000D01*
X141221917Y-128609156D01*
X141319768Y-128755600D01*
X141385710Y-128854290D01*
X154244400Y-141712980D01*
X154244400Y-142947896D01*
X154168223Y-142962230D01*
X154047193Y-143040110D01*
X153965999Y-143158942D01*
X153937434Y-143300000D01*
X153937434Y-143504524D01*
X153895416Y-143402832D01*
X153598730Y-143105628D01*
X153210893Y-142944584D01*
X152790949Y-142944218D01*
X152402832Y-143104584D01*
X152262772Y-143244400D01*
X150172056Y-143244400D01*
X150172056Y-143000510D01*
X150147260Y-142868733D01*
X150069380Y-142747703D01*
X149950548Y-142666509D01*
X149809490Y-142637944D01*
X147810510Y-142637944D01*
X147678733Y-142662740D01*
X147557703Y-142740620D01*
X147476509Y-142859452D01*
X147447944Y-143000510D01*
X147447944Y-143371413D01*
X147395383Y-143245153D01*
X147020851Y-142871947D01*
X146532009Y-142670477D01*
X146320800Y-142734758D01*
X146320800Y-143949200D01*
X146340800Y-143949200D01*
X146340800Y-144050800D01*
X146320800Y-144050800D01*
X146320800Y-145265242D01*
X146532009Y-145329523D01*
X147020851Y-145128053D01*
X147395383Y-144754847D01*
X147447944Y-144628587D01*
X147447944Y-144999490D01*
X147472740Y-145131267D01*
X147550620Y-145252297D01*
X147669452Y-145333491D01*
X147810510Y-145362056D01*
X149809490Y-145362056D01*
X149941267Y-145337260D01*
X150062297Y-145259380D01*
X150143491Y-145140548D01*
X150172056Y-144999490D01*
X150172056Y-144755600D01*
X152262740Y-144755600D01*
X152401270Y-144894372D01*
X152789107Y-145055416D01*
X153209051Y-145055782D01*
X153597168Y-144895416D01*
X153894372Y-144598730D01*
X153937434Y-144495025D01*
X153937434Y-144700000D01*
X153962230Y-144831777D01*
X154040110Y-144952807D01*
X154158942Y-145034001D01*
X154300000Y-145062566D01*
X155700000Y-145062566D01*
X155831777Y-145037770D01*
X155952807Y-144959890D01*
X156034001Y-144841058D01*
X156062566Y-144700000D01*
X156062566Y-143300000D01*
X156037770Y-143168223D01*
X155959890Y-143047193D01*
X155841058Y-142965999D01*
X155755600Y-142948693D01*
X155755600Y-141400000D01*
X155698083Y-141110844D01*
X155534290Y-140865710D01*
X144940439Y-130271859D01*
X149499240Y-130271859D01*
X149937925Y-131333557D01*
X150749511Y-132146560D01*
X151810441Y-132587097D01*
X152959199Y-132588100D01*
X154020897Y-132149415D01*
X154833900Y-131337829D01*
X155274437Y-130276899D01*
X155275440Y-129128141D01*
X154836755Y-128066443D01*
X154025169Y-127253440D01*
X152964239Y-126812903D01*
X151815481Y-126811900D01*
X150753783Y-127250585D01*
X149940780Y-128062171D01*
X149500243Y-129123101D01*
X149499240Y-130271859D01*
X144940439Y-130271859D01*
X142675600Y-128007020D01*
X142675600Y-126700645D01*
X142883657Y-126659260D01*
X143291142Y-126386987D01*
X143563415Y-125979502D01*
X143659025Y-125498840D01*
X143563415Y-125018178D01*
X143291142Y-124610693D01*
X142883657Y-124338420D01*
X142402995Y-124242810D01*
X141437005Y-124242810D01*
X140956343Y-124338420D01*
X140548858Y-124610693D01*
X140276585Y-125018178D01*
X140180975Y-125498840D01*
X139505600Y-125498840D01*
X139505600Y-123799580D01*
X145260975Y-123799580D01*
X145356585Y-124280242D01*
X145628858Y-124687727D01*
X146036343Y-124960000D01*
X146517005Y-125055610D01*
X147482995Y-125055610D01*
X147963657Y-124960000D01*
X148371142Y-124687727D01*
X148459707Y-124555180D01*
X156986600Y-124555180D01*
X158215710Y-125784290D01*
X158460845Y-125948084D01*
X158750000Y-126005600D01*
X165889479Y-126005600D01*
X166231401Y-126348120D01*
X166630400Y-126513798D01*
X166630400Y-131379462D01*
X166485146Y-131729273D01*
X166484675Y-132268362D01*
X166690541Y-132766594D01*
X167071401Y-133148120D01*
X167569273Y-133354854D01*
X168108362Y-133355325D01*
X168606594Y-133149459D01*
X168807084Y-132949318D01*
X177122524Y-132949318D01*
X177229541Y-133146872D01*
X177727077Y-133354414D01*
X178266164Y-133355759D01*
X178764730Y-133150702D01*
X178770459Y-133146872D01*
X178877476Y-132949318D01*
X178000000Y-132071842D01*
X177122524Y-132949318D01*
X168807084Y-132949318D01*
X168988120Y-132768599D01*
X169194854Y-132270727D01*
X169194857Y-132266164D01*
X176644241Y-132266164D01*
X176849298Y-132764730D01*
X176853128Y-132770459D01*
X177050682Y-132877476D01*
X177928158Y-132000000D01*
X178071842Y-132000000D01*
X178949318Y-132877476D01*
X179146872Y-132770459D01*
X179354414Y-132272923D01*
X179355759Y-131733836D01*
X179150702Y-131235270D01*
X179146872Y-131229541D01*
X178949318Y-131122524D01*
X178071842Y-132000000D01*
X177928158Y-132000000D01*
X177050682Y-131122524D01*
X176853128Y-131229541D01*
X176645586Y-131727077D01*
X176644241Y-132266164D01*
X169194857Y-132266164D01*
X169195325Y-131731638D01*
X168989459Y-131233406D01*
X168807054Y-131050682D01*
X177122524Y-131050682D01*
X178000000Y-131928158D01*
X178877476Y-131050682D01*
X178770459Y-130853128D01*
X178272923Y-130645586D01*
X177733836Y-130644241D01*
X177235270Y-130849298D01*
X177229541Y-130853128D01*
X177122524Y-131050682D01*
X168807054Y-131050682D01*
X168608599Y-130851880D01*
X168141600Y-130657966D01*
X168141600Y-125975108D01*
X168148120Y-125968599D01*
X168354854Y-125470727D01*
X168354891Y-125428362D01*
X169394675Y-125428362D01*
X169600541Y-125926594D01*
X169981401Y-126308120D01*
X170479273Y-126514854D01*
X171018362Y-126515325D01*
X171516594Y-126309459D01*
X171849033Y-125977600D01*
X172409020Y-125977600D01*
X175965710Y-129534290D01*
X176210845Y-129698084D01*
X176500000Y-129755600D01*
X176947896Y-129755600D01*
X176962230Y-129831777D01*
X177040110Y-129952807D01*
X177158942Y-130034001D01*
X177300000Y-130062566D01*
X178700000Y-130062566D01*
X178831777Y-130037770D01*
X178952807Y-129959890D01*
X179034001Y-129841058D01*
X179062566Y-129700000D01*
X179062566Y-128300000D01*
X179037770Y-128168223D01*
X178959890Y-128047193D01*
X178841058Y-127965999D01*
X178700000Y-127937434D01*
X177300000Y-127937434D01*
X177168223Y-127962230D01*
X177047193Y-128040110D01*
X176965999Y-128158942D01*
X176948693Y-128244400D01*
X176812980Y-128244400D01*
X173301759Y-124733179D01*
X177338663Y-124733179D01*
X177409182Y-124899617D01*
X177798424Y-125057234D01*
X178218354Y-125053897D01*
X178590818Y-124899617D01*
X178661337Y-124733179D01*
X178000000Y-124071842D01*
X177338663Y-124733179D01*
X173301759Y-124733179D01*
X173256290Y-124687710D01*
X173011156Y-124523917D01*
X172722000Y-124466400D01*
X171929620Y-124466400D01*
X171899459Y-124393406D01*
X171518599Y-124011880D01*
X171020727Y-123805146D01*
X170481638Y-123804675D01*
X169983406Y-124010541D01*
X169601880Y-124391401D01*
X169395146Y-124889273D01*
X169394675Y-125428362D01*
X168354891Y-125428362D01*
X168355325Y-124931638D01*
X168149459Y-124433406D01*
X167768599Y-124051880D01*
X167270727Y-123845146D01*
X166731638Y-123844675D01*
X166233406Y-124050541D01*
X165851880Y-124431401D01*
X165825721Y-124494400D01*
X159062980Y-124494400D01*
X158367004Y-123798424D01*
X176942766Y-123798424D01*
X176946103Y-124218354D01*
X177100383Y-124590818D01*
X177266821Y-124661337D01*
X177928158Y-124000000D01*
X178071842Y-124000000D01*
X178733179Y-124661337D01*
X178899617Y-124590818D01*
X179057234Y-124201576D01*
X179053897Y-123781646D01*
X178899617Y-123409182D01*
X178733179Y-123338663D01*
X178071842Y-124000000D01*
X177928158Y-124000000D01*
X177266821Y-123338663D01*
X177100383Y-123409182D01*
X176942766Y-123798424D01*
X158367004Y-123798424D01*
X157835401Y-123266821D01*
X177338663Y-123266821D01*
X178000000Y-123928158D01*
X178661337Y-123266821D01*
X178590818Y-123100383D01*
X178201576Y-122942766D01*
X177781646Y-122946103D01*
X177409182Y-123100383D01*
X177338663Y-123266821D01*
X157835401Y-123266821D01*
X157833870Y-123265290D01*
X157825639Y-123259790D01*
X157588736Y-123101497D01*
X157299580Y-123043980D01*
X148459707Y-123043980D01*
X148371142Y-122911433D01*
X147963657Y-122639160D01*
X147482995Y-122543550D01*
X146517005Y-122543550D01*
X146036343Y-122639160D01*
X145628858Y-122911433D01*
X145356585Y-123318918D01*
X145260975Y-123799580D01*
X139505600Y-123799580D01*
X139505600Y-122346820D01*
X140238816Y-122346820D01*
X140290560Y-122534049D01*
X140546352Y-122952546D01*
X140942825Y-123241300D01*
X141419620Y-123356350D01*
X141869200Y-123356350D01*
X141869200Y-122151120D01*
X141970800Y-122151120D01*
X141970800Y-123356350D01*
X142420380Y-123356350D01*
X142897175Y-123241300D01*
X143293648Y-122952546D01*
X143549440Y-122534049D01*
X143601184Y-122346820D01*
X143535604Y-122151120D01*
X141970800Y-122151120D01*
X141869200Y-122151120D01*
X140304396Y-122151120D01*
X140238816Y-122346820D01*
X139505600Y-122346820D01*
X139505600Y-121853820D01*
X140238816Y-121853820D01*
X140304396Y-122049520D01*
X141869200Y-122049520D01*
X141869200Y-120844290D01*
X141970800Y-120844290D01*
X141970800Y-122049520D01*
X143535604Y-122049520D01*
X143601184Y-121853820D01*
X143549440Y-121666591D01*
X143293648Y-121248094D01*
X142897175Y-120959340D01*
X142420380Y-120844290D01*
X141970800Y-120844290D01*
X141869200Y-120844290D01*
X141419620Y-120844290D01*
X140942825Y-120959340D01*
X140546352Y-121248094D01*
X140290560Y-121666591D01*
X140238816Y-121853820D01*
X139505600Y-121853820D01*
X139505600Y-120401060D01*
X145260975Y-120401060D01*
X145356585Y-120881722D01*
X145628858Y-121289207D01*
X146036343Y-121561480D01*
X146517005Y-121657090D01*
X147482995Y-121657090D01*
X147963657Y-121561480D01*
X148371142Y-121289207D01*
X148459707Y-121156660D01*
X152198940Y-121156660D01*
X152488096Y-121099143D01*
X152733230Y-120935350D01*
X154885128Y-118783452D01*
X176644910Y-118783452D01*
X176644910Y-118836548D01*
X176748060Y-119355118D01*
X177041807Y-119794741D01*
X177481430Y-120088488D01*
X178000000Y-120191638D01*
X178518570Y-120088488D01*
X178958193Y-119794741D01*
X179251940Y-119355118D01*
X179355090Y-118836548D01*
X179355090Y-118783452D01*
X179251940Y-118264882D01*
X178958193Y-117825259D01*
X178518570Y-117531512D01*
X178457178Y-117519300D01*
X178754847Y-117395383D01*
X179128053Y-117020851D01*
X179329523Y-116532009D01*
X179265242Y-116320800D01*
X178050800Y-116320800D01*
X178050800Y-116340800D01*
X177949200Y-116340800D01*
X177949200Y-116320800D01*
X176734758Y-116320800D01*
X176670477Y-116532009D01*
X176871947Y-117020851D01*
X177245153Y-117395383D01*
X177542822Y-117519300D01*
X177481430Y-117531512D01*
X177041807Y-117825259D01*
X176748060Y-118264882D01*
X176644910Y-118783452D01*
X154885128Y-118783452D01*
X158360218Y-115308362D01*
X165644675Y-115308362D01*
X165850541Y-115806594D01*
X166231401Y-116188120D01*
X166729273Y-116394854D01*
X167268362Y-116395325D01*
X167766594Y-116189459D01*
X168148120Y-115808599D01*
X168354854Y-115310727D01*
X168354891Y-115268362D01*
X169394675Y-115268362D01*
X169600541Y-115766594D01*
X169981401Y-116148120D01*
X170479273Y-116354854D01*
X171018362Y-116355325D01*
X171516594Y-116149459D01*
X171898120Y-115768599D01*
X172104854Y-115270727D01*
X172105325Y-114731638D01*
X171899459Y-114233406D01*
X171658484Y-113992009D01*
X176670477Y-113992009D01*
X176871947Y-114480851D01*
X177245153Y-114855383D01*
X177592545Y-115000000D01*
X177245153Y-115144617D01*
X176871947Y-115519149D01*
X176670477Y-116007991D01*
X176734758Y-116219200D01*
X177949200Y-116219200D01*
X177949200Y-115004829D01*
X177933350Y-115000000D01*
X177949200Y-114995171D01*
X177949200Y-113780800D01*
X178050800Y-113780800D01*
X178050800Y-114995171D01*
X178066650Y-115000000D01*
X178050800Y-115004829D01*
X178050800Y-116219200D01*
X179265242Y-116219200D01*
X179329523Y-116007991D01*
X179128053Y-115519149D01*
X178754847Y-115144617D01*
X178407455Y-115000000D01*
X178754847Y-114855383D01*
X179128053Y-114480851D01*
X179329523Y-113992009D01*
X179265242Y-113780800D01*
X178050800Y-113780800D01*
X177949200Y-113780800D01*
X176734758Y-113780800D01*
X176670477Y-113992009D01*
X171658484Y-113992009D01*
X171518599Y-113851880D01*
X171020727Y-113645146D01*
X170481638Y-113644675D01*
X169983406Y-113850541D01*
X169601880Y-114231401D01*
X169395146Y-114729273D01*
X169394675Y-115268362D01*
X168354891Y-115268362D01*
X168355325Y-114771638D01*
X168149459Y-114273406D01*
X167768599Y-113891880D01*
X167270727Y-113685146D01*
X166731638Y-113684675D01*
X166233406Y-113890541D01*
X165851880Y-114271401D01*
X165645146Y-114769273D01*
X165644675Y-115308362D01*
X158360218Y-115308362D01*
X161912980Y-111755600D01*
X165821207Y-111755600D01*
X165850541Y-111826594D01*
X166231401Y-112208120D01*
X166729273Y-112414854D01*
X167268362Y-112415325D01*
X167766594Y-112209459D01*
X168148120Y-111828599D01*
X168178432Y-111755600D01*
X169345998Y-111755600D01*
X169350541Y-111766594D01*
X169731401Y-112148120D01*
X170229273Y-112354854D01*
X170768362Y-112355325D01*
X171266594Y-112149459D01*
X171648120Y-111768599D01*
X171854854Y-111270727D01*
X171855325Y-110731638D01*
X171649459Y-110233406D01*
X171268599Y-109851880D01*
X170770727Y-109645146D01*
X170231638Y-109644675D01*
X169733406Y-109850541D01*
X169351880Y-110231401D01*
X169346482Y-110244400D01*
X168100539Y-110244400D01*
X167768599Y-109911880D01*
X167270727Y-109705146D01*
X166731638Y-109704675D01*
X166233406Y-109910541D01*
X165898963Y-110244400D01*
X161600000Y-110244400D01*
X161310845Y-110301916D01*
X161065710Y-110465710D01*
X151885960Y-119645460D01*
X148459707Y-119645460D01*
X148371142Y-119512913D01*
X147963657Y-119240640D01*
X147482995Y-119145030D01*
X146517005Y-119145030D01*
X146036343Y-119240640D01*
X145628858Y-119512913D01*
X145356585Y-119920398D01*
X145260975Y-120401060D01*
X139505600Y-120401060D01*
X139505600Y-120032230D01*
X140082970Y-119454860D01*
X140460293Y-119454860D01*
X140548858Y-119587407D01*
X140956343Y-119859680D01*
X141437005Y-119955290D01*
X142402995Y-119955290D01*
X142883657Y-119859680D01*
X143291142Y-119587407D01*
X143563415Y-119179922D01*
X143659025Y-118699260D01*
X143563415Y-118218598D01*
X143291142Y-117811113D01*
X142883657Y-117538840D01*
X142402995Y-117443230D01*
X141437005Y-117443230D01*
X140956343Y-117538840D01*
X140548858Y-117811113D01*
X140460293Y-117943660D01*
X139769990Y-117943660D01*
X139480835Y-118001176D01*
X139235700Y-118164970D01*
X138215710Y-119184960D01*
X138051917Y-119430094D01*
X137994400Y-119719250D01*
X137994400Y-138437020D01*
X134465710Y-141965710D01*
X134301917Y-142210844D01*
X134244400Y-142500000D01*
X134244400Y-142947896D01*
X134168223Y-142962230D01*
X134047193Y-143040110D01*
X133965999Y-143158942D01*
X133937434Y-143300000D01*
X102472829Y-143300000D01*
X102074569Y-142901045D01*
X100730734Y-142343036D01*
X99275650Y-142341766D01*
X97930843Y-142897429D01*
X96901045Y-143925431D01*
X96343036Y-145269266D01*
X96341766Y-146724350D01*
X94430600Y-146724350D01*
X94430600Y-138139700D01*
X105644400Y-138139700D01*
X105644400Y-138820733D01*
X105698537Y-138951431D01*
X105798569Y-139051463D01*
X105929267Y-139105600D01*
X106610300Y-139105600D01*
X106699200Y-139016700D01*
X106699200Y-138050800D01*
X106800800Y-138050800D01*
X106800800Y-139016700D01*
X106889700Y-139105600D01*
X107570733Y-139105600D01*
X107701431Y-139051463D01*
X107801463Y-138951431D01*
X107855600Y-138820733D01*
X107855600Y-138139700D01*
X107766700Y-138050800D01*
X106800800Y-138050800D01*
X106699200Y-138050800D01*
X105733300Y-138050800D01*
X105644400Y-138139700D01*
X94430600Y-138139700D01*
X94430600Y-137179267D01*
X105644400Y-137179267D01*
X105644400Y-137860300D01*
X105733300Y-137949200D01*
X106699200Y-137949200D01*
X106699200Y-136983300D01*
X106800800Y-136983300D01*
X106800800Y-137949200D01*
X107766700Y-137949200D01*
X107855600Y-137860300D01*
X107855600Y-137179267D01*
X107801463Y-137048569D01*
X107701431Y-136948537D01*
X107570733Y-136894400D01*
X106889700Y-136894400D01*
X106800800Y-136983300D01*
X106699200Y-136983300D01*
X106610300Y-136894400D01*
X105929267Y-136894400D01*
X105798569Y-136948537D01*
X105698537Y-137048569D01*
X105644400Y-137179267D01*
X94430600Y-137179267D01*
X94430600Y-135782126D01*
X116168825Y-135782126D01*
X116218762Y-135963037D01*
X116468498Y-136372470D01*
X116855907Y-136655167D01*
X117322010Y-136768090D01*
X117699200Y-136768090D01*
X117699200Y-135590800D01*
X117800800Y-135590800D01*
X117800800Y-136768090D01*
X118177990Y-136768090D01*
X118644093Y-136655167D01*
X119031502Y-136372470D01*
X119281238Y-135963037D01*
X119331175Y-135782126D01*
X119265247Y-135590800D01*
X117800800Y-135590800D01*
X117699200Y-135590800D01*
X116234753Y-135590800D01*
X116168825Y-135782126D01*
X94430600Y-135782126D01*
X94430600Y-135297874D01*
X116168825Y-135297874D01*
X116234753Y-135489200D01*
X117699200Y-135489200D01*
X117699200Y-134311910D01*
X117800800Y-134311910D01*
X117800800Y-135489200D01*
X119265247Y-135489200D01*
X119331175Y-135297874D01*
X119281238Y-135116963D01*
X119031502Y-134707530D01*
X118644093Y-134424833D01*
X118177990Y-134311910D01*
X117800800Y-134311910D01*
X117699200Y-134311910D01*
X117322010Y-134311910D01*
X116855907Y-134424833D01*
X116468498Y-134707530D01*
X116218762Y-135116963D01*
X116168825Y-135297874D01*
X94430600Y-135297874D01*
X94430600Y-125639700D01*
X97194400Y-125639700D01*
X97194400Y-126270733D01*
X97248537Y-126401431D01*
X97348569Y-126501463D01*
X97479267Y-126555600D01*
X98110300Y-126555600D01*
X98199200Y-126466700D01*
X98199200Y-125550800D01*
X98300800Y-125550800D01*
X98300800Y-126466700D01*
X98389700Y-126555600D01*
X99020733Y-126555600D01*
X99151431Y-126501463D01*
X99251463Y-126401431D01*
X99305600Y-126270733D01*
X99305600Y-125709051D01*
X102194218Y-125709051D01*
X102354584Y-126097168D01*
X102651270Y-126394372D01*
X103039107Y-126555416D01*
X103459051Y-126555782D01*
X103847168Y-126395416D01*
X104144372Y-126098730D01*
X104305416Y-125710893D01*
X104305782Y-125290949D01*
X104145416Y-124902832D01*
X104005600Y-124762772D01*
X104005600Y-124312980D01*
X105402980Y-122915600D01*
X105848538Y-122915600D01*
X105853081Y-122926594D01*
X105994400Y-123068160D01*
X105994400Y-132192090D01*
X105813264Y-132372910D01*
X105644592Y-132779118D01*
X105644208Y-133218953D01*
X105812171Y-133625454D01*
X106122910Y-133936736D01*
X106529118Y-134105408D01*
X106968953Y-134105792D01*
X107375454Y-133937829D01*
X107558001Y-133755600D01*
X116397377Y-133755600D01*
X116473342Y-133869289D01*
X116872175Y-134135781D01*
X117342631Y-134229360D01*
X118157369Y-134229360D01*
X118627825Y-134135781D01*
X119026658Y-133869289D01*
X119102623Y-133755600D01*
X121529560Y-133755600D01*
X125652248Y-137878288D01*
X125647686Y-137889273D01*
X125647215Y-138428362D01*
X125853081Y-138926594D01*
X126233941Y-139308120D01*
X126731813Y-139514854D01*
X127270902Y-139515325D01*
X127769134Y-139309459D01*
X128150660Y-138928599D01*
X128357394Y-138430727D01*
X128357429Y-138389700D01*
X129142370Y-138389700D01*
X129142370Y-139320223D01*
X129196507Y-139450921D01*
X129296539Y-139550953D01*
X129427237Y-139605090D01*
X130357760Y-139605090D01*
X130446660Y-139516190D01*
X130446660Y-138300800D01*
X130548260Y-138300800D01*
X130548260Y-139516190D01*
X130637160Y-139605090D01*
X131567683Y-139605090D01*
X131698381Y-139550953D01*
X131798413Y-139450921D01*
X131852550Y-139320223D01*
X131852550Y-138389700D01*
X131763650Y-138300800D01*
X130548260Y-138300800D01*
X130446660Y-138300800D01*
X129231270Y-138300800D01*
X129142370Y-138389700D01*
X128357429Y-138389700D01*
X128357865Y-137891638D01*
X128151999Y-137393406D01*
X127938743Y-137179777D01*
X129142370Y-137179777D01*
X129142370Y-138110300D01*
X129231270Y-138199200D01*
X130446660Y-138199200D01*
X130446660Y-136983810D01*
X130548260Y-136983810D01*
X130548260Y-138199200D01*
X131763650Y-138199200D01*
X131852550Y-138110300D01*
X131852550Y-137179777D01*
X131798413Y-137049079D01*
X131698381Y-136949047D01*
X131567683Y-136894910D01*
X130637160Y-136894910D01*
X130548260Y-136983810D01*
X130446660Y-136983810D01*
X130357760Y-136894910D01*
X129427237Y-136894910D01*
X129296539Y-136949047D01*
X129196507Y-137049079D01*
X129142370Y-137179777D01*
X127938743Y-137179777D01*
X127771139Y-137011880D01*
X127273267Y-136805146D01*
X126734178Y-136804675D01*
X126721170Y-136810050D01*
X125800820Y-135889700D01*
X134194400Y-135889700D01*
X134194400Y-136520733D01*
X134248537Y-136651431D01*
X134348569Y-136751463D01*
X134479267Y-136805600D01*
X135110300Y-136805600D01*
X135199200Y-136716700D01*
X135199200Y-135800800D01*
X135300800Y-135800800D01*
X135300800Y-136716700D01*
X135389700Y-136805600D01*
X136020733Y-136805600D01*
X136151431Y-136751463D01*
X136251463Y-136651431D01*
X136305600Y-136520733D01*
X136305600Y-135889700D01*
X136216700Y-135800800D01*
X135300800Y-135800800D01*
X135199200Y-135800800D01*
X134283300Y-135800800D01*
X134194400Y-135889700D01*
X125800820Y-135889700D01*
X124890387Y-134979267D01*
X134194400Y-134979267D01*
X134194400Y-135610300D01*
X134283300Y-135699200D01*
X135199200Y-135699200D01*
X135199200Y-134783300D01*
X135300800Y-134783300D01*
X135300800Y-135699200D01*
X136216700Y-135699200D01*
X136305600Y-135610300D01*
X136305600Y-134979267D01*
X136251463Y-134848569D01*
X136151431Y-134748537D01*
X136020733Y-134694400D01*
X135389700Y-134694400D01*
X135300800Y-134783300D01*
X135199200Y-134783300D01*
X135110300Y-134694400D01*
X134479267Y-134694400D01*
X134348569Y-134748537D01*
X134248537Y-134848569D01*
X134194400Y-134979267D01*
X124890387Y-134979267D01*
X122376830Y-132465710D01*
X122240393Y-132374546D01*
X122131696Y-132301917D01*
X121842540Y-132244400D01*
X119102623Y-132244400D01*
X119026658Y-132130711D01*
X118627825Y-131864219D01*
X118157369Y-131770640D01*
X117342631Y-131770640D01*
X116872175Y-131864219D01*
X116473342Y-132130711D01*
X116397377Y-132244400D01*
X107557910Y-132244400D01*
X107505600Y-132191999D01*
X107505600Y-130460000D01*
X116113271Y-130460000D01*
X116206850Y-130930456D01*
X116473342Y-131329289D01*
X116872175Y-131595781D01*
X117342631Y-131689360D01*
X118157369Y-131689360D01*
X118627825Y-131595781D01*
X119026658Y-131329289D01*
X119102623Y-131215600D01*
X121049680Y-131215600D01*
X121338836Y-131158083D01*
X121583970Y-130994290D01*
X123822660Y-128755600D01*
X125640484Y-128755600D01*
X125640484Y-128999490D01*
X125665280Y-129131267D01*
X125743160Y-129252297D01*
X125861992Y-129333491D01*
X126003050Y-129362056D01*
X128002030Y-129362056D01*
X128133807Y-129337260D01*
X128254837Y-129259380D01*
X128336031Y-129140548D01*
X128364596Y-128999490D01*
X128364596Y-128755600D01*
X129306271Y-128755600D01*
X129348001Y-128856594D01*
X129728861Y-129238120D01*
X130226733Y-129444854D01*
X130765822Y-129445325D01*
X131264054Y-129239459D01*
X131645580Y-128858599D01*
X131650978Y-128845600D01*
X132277020Y-128845600D01*
X134194389Y-130762969D01*
X134194218Y-130959051D01*
X134354584Y-131347168D01*
X134651270Y-131644372D01*
X135039107Y-131805416D01*
X135459051Y-131805782D01*
X135847168Y-131645416D01*
X136144372Y-131348730D01*
X136305416Y-130960893D01*
X136305782Y-130540949D01*
X136145416Y-130152832D01*
X135848730Y-129855628D01*
X135460893Y-129694584D01*
X135262992Y-129694412D01*
X133124290Y-127555710D01*
X132989595Y-127465710D01*
X132879156Y-127391917D01*
X132590000Y-127334400D01*
X131651462Y-127334400D01*
X131646919Y-127323406D01*
X131266059Y-126941880D01*
X130768187Y-126735146D01*
X130229098Y-126734675D01*
X129730866Y-126940541D01*
X129426476Y-127244400D01*
X128364596Y-127244400D01*
X128364596Y-127000510D01*
X128339800Y-126868733D01*
X128261920Y-126747703D01*
X128143088Y-126666509D01*
X128002030Y-126637944D01*
X126003050Y-126637944D01*
X125871273Y-126662740D01*
X125750243Y-126740620D01*
X125669049Y-126859452D01*
X125640484Y-127000510D01*
X125640484Y-127244400D01*
X123509680Y-127244400D01*
X123220524Y-127301917D01*
X123076546Y-127398120D01*
X122975390Y-127465710D01*
X120736700Y-129704400D01*
X119102623Y-129704400D01*
X119026658Y-129590711D01*
X118627825Y-129324219D01*
X118157369Y-129230640D01*
X117342631Y-129230640D01*
X116872175Y-129324219D01*
X116473342Y-129590711D01*
X116206850Y-129989544D01*
X116113271Y-130460000D01*
X107505600Y-130460000D01*
X107505600Y-123959051D01*
X129194218Y-123959051D01*
X129354584Y-124347168D01*
X129651270Y-124644372D01*
X130039107Y-124805416D01*
X130459051Y-124805782D01*
X130847168Y-124645416D01*
X131144372Y-124348730D01*
X131187434Y-124245025D01*
X131187434Y-124450000D01*
X131212230Y-124581777D01*
X131290110Y-124702807D01*
X131408942Y-124784001D01*
X131550000Y-124812566D01*
X132950000Y-124812566D01*
X133081777Y-124787770D01*
X133202807Y-124709890D01*
X133284001Y-124591058D01*
X133312566Y-124450000D01*
X133312566Y-124280600D01*
X133544867Y-124280600D01*
X135218660Y-125802230D01*
X135145146Y-125979273D01*
X135144675Y-126518362D01*
X135350541Y-127016594D01*
X135731401Y-127398120D01*
X136229273Y-127604854D01*
X136768362Y-127605325D01*
X137266594Y-127399459D01*
X137648120Y-127018599D01*
X137854854Y-126520727D01*
X137855325Y-125981638D01*
X137649459Y-125483406D01*
X137268599Y-125101880D01*
X136770727Y-124895146D01*
X136231638Y-124894675D01*
X135933461Y-125017880D01*
X134106920Y-123357388D01*
X134028825Y-123310420D01*
X133953052Y-123259790D01*
X133940486Y-123257291D01*
X133929505Y-123250686D01*
X133839369Y-123237177D01*
X133750000Y-123219400D01*
X133312566Y-123219400D01*
X133312566Y-123050000D01*
X133287770Y-122918223D01*
X133209890Y-122797193D01*
X133091058Y-122715999D01*
X132950000Y-122687434D01*
X131550000Y-122687434D01*
X131418223Y-122712230D01*
X131297193Y-122790110D01*
X131215999Y-122908942D01*
X131187434Y-123050000D01*
X131187434Y-123254524D01*
X131145416Y-123152832D01*
X130848730Y-122855628D01*
X130780600Y-122827338D01*
X130780600Y-121509782D01*
X131723674Y-120566708D01*
X131889139Y-120635415D01*
X132378713Y-120635843D01*
X132831185Y-120448885D01*
X133177669Y-120103006D01*
X133247182Y-119935600D01*
X133845000Y-119935600D01*
X134048052Y-119895210D01*
X134220191Y-119780191D01*
X136555243Y-117445139D01*
X136768362Y-117445325D01*
X137266594Y-117239459D01*
X137506471Y-117000000D01*
X145260975Y-117000000D01*
X145356585Y-117480662D01*
X145628858Y-117888147D01*
X146036343Y-118160420D01*
X146517005Y-118256030D01*
X147482995Y-118256030D01*
X147963657Y-118160420D01*
X148371142Y-117888147D01*
X148643415Y-117480662D01*
X148739025Y-117000000D01*
X148643415Y-116519338D01*
X148371142Y-116111853D01*
X147963657Y-115839580D01*
X147482995Y-115743970D01*
X146517005Y-115743970D01*
X146036343Y-115839580D01*
X145628858Y-116111853D01*
X145356585Y-116519338D01*
X145260975Y-117000000D01*
X137506471Y-117000000D01*
X137648120Y-116858599D01*
X137746946Y-116620600D01*
X138160000Y-116620600D01*
X138363052Y-116580210D01*
X138535191Y-116465191D01*
X139169042Y-115831340D01*
X140309953Y-115831340D01*
X140548858Y-116188887D01*
X140956343Y-116461160D01*
X141437005Y-116556770D01*
X142402995Y-116556770D01*
X142883657Y-116461160D01*
X143291142Y-116188887D01*
X143563415Y-115781402D01*
X143659025Y-115300740D01*
X143563415Y-114820078D01*
X143291142Y-114412593D01*
X142883657Y-114140320D01*
X142402995Y-114044710D01*
X141437005Y-114044710D01*
X140956343Y-114140320D01*
X140548858Y-114412593D01*
X140309953Y-114770140D01*
X138949260Y-114770140D01*
X138746208Y-114810530D01*
X138574069Y-114925549D01*
X137940218Y-115559400D01*
X137746970Y-115559400D01*
X137649459Y-115323406D01*
X137268599Y-114941880D01*
X136770727Y-114735146D01*
X136231638Y-114734675D01*
X135733406Y-114940541D01*
X135351880Y-115321401D01*
X135145146Y-115819273D01*
X135144675Y-116358362D01*
X135350541Y-116856594D01*
X135496655Y-117002963D01*
X133625218Y-118874400D01*
X133247303Y-118874400D01*
X133178885Y-118708815D01*
X132833006Y-118362331D01*
X132380861Y-118174585D01*
X131891287Y-118174157D01*
X131438815Y-118361115D01*
X131092331Y-118706994D01*
X130904585Y-119159139D01*
X130904157Y-119648713D01*
X130973378Y-119816240D01*
X129874809Y-120914809D01*
X129759790Y-121086948D01*
X129719400Y-121290000D01*
X129719400Y-122827079D01*
X129652832Y-122854584D01*
X129355628Y-123151270D01*
X129194584Y-123539107D01*
X129194218Y-123959051D01*
X107505600Y-123959051D01*
X107505600Y-123418349D01*
X107769134Y-123309459D01*
X108150660Y-122928599D01*
X108156058Y-122915600D01*
X109848538Y-122915600D01*
X109853081Y-122926594D01*
X110233941Y-123308120D01*
X110731813Y-123514854D01*
X111270902Y-123515325D01*
X111769134Y-123309459D01*
X112150660Y-122928599D01*
X112357394Y-122430727D01*
X112357865Y-121891638D01*
X112151999Y-121393406D01*
X111771139Y-121011880D01*
X111273267Y-120805146D01*
X110734178Y-120804675D01*
X110235946Y-121010541D01*
X109854420Y-121391401D01*
X109849022Y-121404400D01*
X108156542Y-121404400D01*
X108151999Y-121393406D01*
X107771139Y-121011880D01*
X107273267Y-120805146D01*
X106734178Y-120804675D01*
X106235946Y-121010541D01*
X105854420Y-121391401D01*
X105849022Y-121404400D01*
X105090000Y-121404400D01*
X104800844Y-121461917D01*
X104555710Y-121625710D01*
X102715710Y-123465710D01*
X102551917Y-123710844D01*
X102494400Y-124000000D01*
X102494400Y-124762740D01*
X102355628Y-124901270D01*
X102194584Y-125289107D01*
X102194218Y-125709051D01*
X99305600Y-125709051D01*
X99305600Y-125639700D01*
X99216700Y-125550800D01*
X98300800Y-125550800D01*
X98199200Y-125550800D01*
X97283300Y-125550800D01*
X97194400Y-125639700D01*
X94430600Y-125639700D01*
X94430600Y-124729267D01*
X97194400Y-124729267D01*
X97194400Y-125360300D01*
X97283300Y-125449200D01*
X98199200Y-125449200D01*
X98199200Y-124533300D01*
X98300800Y-124533300D01*
X98300800Y-125449200D01*
X99216700Y-125449200D01*
X99305600Y-125360300D01*
X99305600Y-124729267D01*
X99251463Y-124598569D01*
X99151431Y-124498537D01*
X99020733Y-124444400D01*
X98389700Y-124444400D01*
X98300800Y-124533300D01*
X98199200Y-124533300D01*
X98110300Y-124444400D01*
X97479267Y-124444400D01*
X97348569Y-124498537D01*
X97248537Y-124598569D01*
X97194400Y-124729267D01*
X94430600Y-124729267D01*
X94430600Y-120766552D01*
X118886242Y-120766552D01*
X119244143Y-121632739D01*
X119906276Y-122296028D01*
X120771837Y-122655440D01*
X121709052Y-122656258D01*
X122575239Y-122298357D01*
X123238528Y-121636224D01*
X123597940Y-120770663D01*
X123598758Y-119833448D01*
X123240857Y-118967261D01*
X122578724Y-118303972D01*
X121713163Y-117944560D01*
X120775948Y-117943742D01*
X119909761Y-118301643D01*
X119246472Y-118963776D01*
X118887060Y-119829337D01*
X118886242Y-120766552D01*
X94430600Y-120766552D01*
X94430600Y-116810510D01*
X97637944Y-116810510D01*
X97637944Y-118809490D01*
X97662740Y-118941267D01*
X97740620Y-119062297D01*
X97859452Y-119143491D01*
X98000510Y-119172056D01*
X99999490Y-119172056D01*
X100131267Y-119147260D01*
X100252297Y-119069380D01*
X100333491Y-118950548D01*
X100362056Y-118809490D01*
X100362056Y-118565600D01*
X106992030Y-118565600D01*
X107281186Y-118508083D01*
X107526320Y-118344290D01*
X108126897Y-117743713D01*
X128364157Y-117743713D01*
X128551115Y-118196185D01*
X128896994Y-118542669D01*
X129349139Y-118730415D01*
X129838713Y-118730843D01*
X130291185Y-118543885D01*
X130637669Y-118198006D01*
X130825415Y-117745861D01*
X130825843Y-117256287D01*
X130638885Y-116803815D01*
X130293006Y-116457331D01*
X130280600Y-116452180D01*
X130280600Y-115838713D01*
X130904157Y-115838713D01*
X131091115Y-116291185D01*
X131436994Y-116637669D01*
X131889139Y-116825415D01*
X132378713Y-116825843D01*
X132831185Y-116638885D01*
X133177669Y-116293006D01*
X133365415Y-115840861D01*
X133365843Y-115351287D01*
X133296622Y-115183760D01*
X133622651Y-114857731D01*
X133647810Y-114820078D01*
X133737670Y-114685592D01*
X133778060Y-114482540D01*
X133778060Y-114211676D01*
X134097090Y-114211676D01*
X134228867Y-114186880D01*
X134349897Y-114109000D01*
X134431091Y-113990168D01*
X134459656Y-113849110D01*
X134459656Y-113440600D01*
X135253030Y-113440600D01*
X135350541Y-113676594D01*
X135731401Y-114058120D01*
X136229273Y-114264854D01*
X136768362Y-114265325D01*
X137266594Y-114059459D01*
X137648120Y-113678599D01*
X137681197Y-113598940D01*
X145260975Y-113598940D01*
X145356585Y-114079602D01*
X145628858Y-114487087D01*
X146036343Y-114759360D01*
X146517005Y-114854970D01*
X147482995Y-114854970D01*
X147963657Y-114759360D01*
X148371142Y-114487087D01*
X148459707Y-114354540D01*
X149150010Y-114354540D01*
X149439166Y-114297023D01*
X149684300Y-114133230D01*
X155261930Y-108555600D01*
X172497530Y-108555600D01*
X175666220Y-111724290D01*
X175911354Y-111888083D01*
X176200510Y-111945600D01*
X176637944Y-111945600D01*
X176637944Y-112189490D01*
X176662740Y-112321267D01*
X176740620Y-112442297D01*
X176859452Y-112523491D01*
X177000510Y-112552056D01*
X177371413Y-112552056D01*
X177245153Y-112604617D01*
X176871947Y-112979149D01*
X176670477Y-113467991D01*
X176734758Y-113679200D01*
X177949200Y-113679200D01*
X177949200Y-113659200D01*
X178050800Y-113659200D01*
X178050800Y-113679200D01*
X179265242Y-113679200D01*
X179329523Y-113467991D01*
X179128053Y-112979149D01*
X178754847Y-112604617D01*
X178628587Y-112552056D01*
X178999490Y-112552056D01*
X179131267Y-112527260D01*
X179252297Y-112449380D01*
X179333491Y-112330548D01*
X179362056Y-112189490D01*
X179362056Y-110190510D01*
X179337260Y-110058733D01*
X179259380Y-109937703D01*
X179140548Y-109856509D01*
X178999490Y-109827944D01*
X177000510Y-109827944D01*
X176868733Y-109852740D01*
X176747703Y-109930620D01*
X176666509Y-110049452D01*
X176637944Y-110190510D01*
X176637944Y-110434400D01*
X176513490Y-110434400D01*
X173344800Y-107265710D01*
X173227147Y-107187097D01*
X173099666Y-107101917D01*
X172810510Y-107044400D01*
X167755600Y-107044400D01*
X167755600Y-106733179D01*
X176338663Y-106733179D01*
X176409182Y-106899617D01*
X176798424Y-107057234D01*
X177218354Y-107053897D01*
X177590818Y-106899617D01*
X177661337Y-106733179D01*
X177000000Y-106071842D01*
X176338663Y-106733179D01*
X167755600Y-106733179D01*
X167755600Y-105798424D01*
X175942766Y-105798424D01*
X175946103Y-106218354D01*
X176100383Y-106590818D01*
X176266821Y-106661337D01*
X176928158Y-106000000D01*
X177071842Y-106000000D01*
X177733179Y-106661337D01*
X177899617Y-106590818D01*
X178057234Y-106201576D01*
X178053897Y-105781646D01*
X177899617Y-105409182D01*
X177733179Y-105338663D01*
X177071842Y-106000000D01*
X176928158Y-106000000D01*
X176266821Y-105338663D01*
X176100383Y-105409182D01*
X175942766Y-105798424D01*
X167755600Y-105798424D01*
X167755600Y-105266821D01*
X176338663Y-105266821D01*
X177000000Y-105928158D01*
X177661337Y-105266821D01*
X177590818Y-105100383D01*
X177201576Y-104942766D01*
X176781646Y-104946103D01*
X176409182Y-105100383D01*
X176338663Y-105266821D01*
X167755600Y-105266821D01*
X167755600Y-102054002D01*
X167766594Y-102049459D01*
X168027189Y-101789318D01*
X169622524Y-101789318D01*
X169729541Y-101986872D01*
X170227077Y-102194414D01*
X170766164Y-102195759D01*
X171264730Y-101990702D01*
X171270459Y-101986872D01*
X171377476Y-101789318D01*
X170500000Y-100911842D01*
X169622524Y-101789318D01*
X168027189Y-101789318D01*
X168148120Y-101668599D01*
X168354854Y-101170727D01*
X168354910Y-101106164D01*
X169144241Y-101106164D01*
X169349298Y-101604730D01*
X169353128Y-101610459D01*
X169550682Y-101717476D01*
X170428158Y-100840000D01*
X170571842Y-100840000D01*
X171449318Y-101717476D01*
X171646872Y-101610459D01*
X171854414Y-101112923D01*
X171855759Y-100573836D01*
X171650702Y-100075270D01*
X171646872Y-100069541D01*
X171449318Y-99962524D01*
X170571842Y-100840000D01*
X170428158Y-100840000D01*
X169550682Y-99962524D01*
X169353128Y-100069541D01*
X169145586Y-100567077D01*
X169144241Y-101106164D01*
X168354910Y-101106164D01*
X168355325Y-100631638D01*
X168149459Y-100133406D01*
X167907159Y-99890682D01*
X169622524Y-99890682D01*
X170500000Y-100768158D01*
X171377476Y-99890682D01*
X171270459Y-99693128D01*
X170772923Y-99485586D01*
X170233836Y-99484241D01*
X169735270Y-99689298D01*
X169729541Y-99693128D01*
X169622524Y-99890682D01*
X167907159Y-99890682D01*
X167768599Y-99751880D01*
X167633600Y-99695824D01*
X167633600Y-98532657D01*
X167898120Y-98268599D01*
X168104854Y-97770727D01*
X168104856Y-97768362D01*
X175554675Y-97768362D01*
X175760541Y-98266594D01*
X176141401Y-98648120D01*
X176282400Y-98706668D01*
X176282400Y-99940746D01*
X176168223Y-99962230D01*
X176047193Y-100040110D01*
X175965999Y-100158942D01*
X175937434Y-100300000D01*
X175937434Y-101700000D01*
X175962230Y-101831777D01*
X176040110Y-101952807D01*
X176158942Y-102034001D01*
X176300000Y-102062566D01*
X177700000Y-102062566D01*
X177831777Y-102037770D01*
X177952807Y-101959890D01*
X178034001Y-101841058D01*
X178062566Y-101700000D01*
X178062566Y-100300000D01*
X178037770Y-100168223D01*
X177959890Y-100047193D01*
X177841058Y-99965999D01*
X177793600Y-99956389D01*
X177793600Y-98532657D01*
X178058120Y-98268599D01*
X178264854Y-97770727D01*
X178265325Y-97231638D01*
X178059459Y-96733406D01*
X177678599Y-96351880D01*
X177180727Y-96145146D01*
X176641638Y-96144675D01*
X176143406Y-96350541D01*
X175761880Y-96731401D01*
X175555146Y-97229273D01*
X175554675Y-97768362D01*
X168104856Y-97768362D01*
X168105325Y-97231638D01*
X167899459Y-96733406D01*
X167518599Y-96351880D01*
X167020727Y-96145146D01*
X166481638Y-96144675D01*
X165983406Y-96350541D01*
X165601880Y-96731401D01*
X165395146Y-97229273D01*
X165394675Y-97768362D01*
X165600541Y-98266594D01*
X165981401Y-98648120D01*
X166122400Y-98706668D01*
X166122400Y-99861353D01*
X165851880Y-100131401D01*
X165645146Y-100629273D01*
X165644675Y-101168362D01*
X165850541Y-101666594D01*
X166231401Y-102048120D01*
X166244400Y-102053518D01*
X166244400Y-107044400D01*
X154948950Y-107044400D01*
X154659795Y-107101916D01*
X154414660Y-107265710D01*
X148837030Y-112843340D01*
X148459707Y-112843340D01*
X148371142Y-112710793D01*
X147963657Y-112438520D01*
X147482995Y-112342910D01*
X146517005Y-112342910D01*
X146036343Y-112438520D01*
X145628858Y-112710793D01*
X145356585Y-113118278D01*
X145260975Y-113598940D01*
X137681197Y-113598940D01*
X137854854Y-113180727D01*
X137855325Y-112641638D01*
X137649459Y-112143406D01*
X137268599Y-111761880D01*
X136770727Y-111555146D01*
X136231638Y-111554675D01*
X135733406Y-111760541D01*
X135351880Y-112141401D01*
X135253054Y-112379400D01*
X134459656Y-112379400D01*
X134459656Y-112149850D01*
X134434860Y-112018073D01*
X134356980Y-111897043D01*
X134238148Y-111815849D01*
X134097090Y-111787284D01*
X132397830Y-111787284D01*
X132266053Y-111812080D01*
X132145023Y-111889960D01*
X132063829Y-112008792D01*
X132035264Y-112149850D01*
X132035264Y-113849110D01*
X132060060Y-113980887D01*
X132137940Y-114101917D01*
X132256772Y-114183111D01*
X132397830Y-114211676D01*
X132716860Y-114211676D01*
X132716860Y-114262758D01*
X132546326Y-114433292D01*
X132380861Y-114364585D01*
X131891287Y-114364157D01*
X131438815Y-114551115D01*
X131092331Y-114896994D01*
X130904585Y-115349139D01*
X130904157Y-115838713D01*
X130280600Y-115838713D01*
X130280600Y-114246970D01*
X130516594Y-114149459D01*
X130898120Y-113768599D01*
X131104854Y-113270727D01*
X131105325Y-112731638D01*
X130899459Y-112233406D01*
X130518599Y-111851880D01*
X130020727Y-111645146D01*
X129481638Y-111644675D01*
X128983406Y-111850541D01*
X128601880Y-112231401D01*
X128395146Y-112729273D01*
X128394675Y-113268362D01*
X128600541Y-113766594D01*
X128981401Y-114148120D01*
X129219400Y-114246946D01*
X129219400Y-116323652D01*
X128898815Y-116456115D01*
X128552331Y-116801994D01*
X128364585Y-117254139D01*
X128364157Y-117743713D01*
X108126897Y-117743713D01*
X111536830Y-114333780D01*
X111700624Y-114088645D01*
X111758140Y-113799490D01*
X111758140Y-113362056D01*
X112002030Y-113362056D01*
X112133807Y-113337260D01*
X112254837Y-113259380D01*
X112336031Y-113140548D01*
X112364596Y-112999490D01*
X112364596Y-111000510D01*
X112339800Y-110868733D01*
X112261920Y-110747703D01*
X112143088Y-110666509D01*
X112002030Y-110637944D01*
X111758140Y-110637944D01*
X111758140Y-110314002D01*
X111769134Y-110309459D01*
X112150660Y-109928599D01*
X112357394Y-109430727D01*
X112357865Y-108891638D01*
X112151999Y-108393406D01*
X111925542Y-108166552D01*
X118636242Y-108166552D01*
X118994143Y-109032739D01*
X119656276Y-109696028D01*
X120521837Y-110055440D01*
X121459052Y-110056258D01*
X122325239Y-109698357D01*
X122988528Y-109036224D01*
X123347940Y-108170663D01*
X123348758Y-107233448D01*
X122990857Y-106367261D01*
X122328724Y-105703972D01*
X121463163Y-105344560D01*
X120525948Y-105343742D01*
X119659761Y-105701643D01*
X118996472Y-106363776D01*
X118637060Y-107229337D01*
X118636242Y-108166552D01*
X111925542Y-108166552D01*
X111771139Y-108011880D01*
X111273267Y-107805146D01*
X110734178Y-107804675D01*
X110235946Y-108010541D01*
X109854420Y-108391401D01*
X109647686Y-108889273D01*
X109647215Y-109428362D01*
X109853081Y-109926594D01*
X110233941Y-110308120D01*
X110246940Y-110313518D01*
X110246940Y-110637944D01*
X110003050Y-110637944D01*
X109871273Y-110662740D01*
X109750243Y-110740620D01*
X109669049Y-110859452D01*
X109640484Y-111000510D01*
X109640484Y-112999490D01*
X109665280Y-113131267D01*
X109743160Y-113252297D01*
X109861992Y-113333491D01*
X110003050Y-113362056D01*
X110246940Y-113362056D01*
X110246940Y-113486510D01*
X106679050Y-117054400D01*
X100362056Y-117054400D01*
X100362056Y-116810510D01*
X100337260Y-116678733D01*
X100259380Y-116557703D01*
X100140548Y-116476509D01*
X99999490Y-116447944D01*
X99628587Y-116447944D01*
X99754847Y-116395383D01*
X100128053Y-116020851D01*
X100329523Y-115532009D01*
X100265242Y-115320800D01*
X99050800Y-115320800D01*
X99050800Y-115340800D01*
X98949200Y-115340800D01*
X98949200Y-115320800D01*
X97734758Y-115320800D01*
X97670477Y-115532009D01*
X97871947Y-116020851D01*
X98245153Y-116395383D01*
X98371413Y-116447944D01*
X98000510Y-116447944D01*
X97868733Y-116472740D01*
X97747703Y-116550620D01*
X97666509Y-116669452D01*
X97637944Y-116810510D01*
X94430600Y-116810510D01*
X94430600Y-112992009D01*
X97670477Y-112992009D01*
X97871947Y-113480851D01*
X98245153Y-113855383D01*
X98592545Y-114000000D01*
X98245153Y-114144617D01*
X97871947Y-114519149D01*
X97670477Y-115007991D01*
X97734758Y-115219200D01*
X98949200Y-115219200D01*
X98949200Y-114004829D01*
X98933350Y-114000000D01*
X98949200Y-113995171D01*
X98949200Y-112780800D01*
X99050800Y-112780800D01*
X99050800Y-113995171D01*
X99066650Y-114000000D01*
X99050800Y-114004829D01*
X99050800Y-115219200D01*
X100265242Y-115219200D01*
X100329523Y-115007991D01*
X100128053Y-114519149D01*
X99754847Y-114144617D01*
X99407455Y-114000000D01*
X99754847Y-113855383D01*
X100128053Y-113480851D01*
X100329523Y-112992009D01*
X100265242Y-112780800D01*
X99050800Y-112780800D01*
X98949200Y-112780800D01*
X97734758Y-112780800D01*
X97670477Y-112992009D01*
X94430600Y-112992009D01*
X94430600Y-110163452D01*
X97644910Y-110163452D01*
X97644910Y-110216548D01*
X97748060Y-110735118D01*
X98041807Y-111174741D01*
X98481430Y-111468488D01*
X98542822Y-111480700D01*
X98245153Y-111604617D01*
X97871947Y-111979149D01*
X97670477Y-112467991D01*
X97734758Y-112679200D01*
X98949200Y-112679200D01*
X98949200Y-112659200D01*
X99050800Y-112659200D01*
X99050800Y-112679200D01*
X100265242Y-112679200D01*
X100329523Y-112467991D01*
X100128053Y-111979149D01*
X99754847Y-111604617D01*
X99457178Y-111480700D01*
X99518570Y-111468488D01*
X99958193Y-111174741D01*
X100111300Y-110945600D01*
X103080070Y-110945600D01*
X104668760Y-112534290D01*
X104913895Y-112698084D01*
X105203050Y-112755600D01*
X105640484Y-112755600D01*
X105640484Y-112999490D01*
X105665280Y-113131267D01*
X105743160Y-113252297D01*
X105861992Y-113333491D01*
X106003050Y-113362056D01*
X108002030Y-113362056D01*
X108133807Y-113337260D01*
X108254837Y-113259380D01*
X108336031Y-113140548D01*
X108364596Y-112999490D01*
X108364596Y-111000510D01*
X108339800Y-110868733D01*
X108261920Y-110747703D01*
X108143088Y-110666509D01*
X108002030Y-110637944D01*
X107758140Y-110637944D01*
X107758140Y-110314002D01*
X107769134Y-110309459D01*
X108150660Y-109928599D01*
X108357394Y-109430727D01*
X108357865Y-108891638D01*
X108151999Y-108393406D01*
X107771139Y-108011880D01*
X107273267Y-107805146D01*
X106734178Y-107804675D01*
X106235946Y-108010541D01*
X105854420Y-108391401D01*
X105647686Y-108889273D01*
X105647215Y-109428362D01*
X105853081Y-109926594D01*
X106233941Y-110308120D01*
X106246940Y-110313518D01*
X106246940Y-110637944D01*
X106003050Y-110637944D01*
X105871273Y-110662740D01*
X105750243Y-110740620D01*
X105669049Y-110859452D01*
X105640484Y-111000510D01*
X105640484Y-111244400D01*
X105516030Y-111244400D01*
X103927340Y-109655710D01*
X103910825Y-109644675D01*
X103682206Y-109491917D01*
X103393050Y-109434400D01*
X100111300Y-109434400D01*
X99958193Y-109205259D01*
X99518570Y-108911512D01*
X99000000Y-108808362D01*
X98481430Y-108911512D01*
X98041807Y-109205259D01*
X97748060Y-109644882D01*
X97644910Y-110163452D01*
X94430600Y-110163452D01*
X94430600Y-103789318D01*
X128872524Y-103789318D01*
X128979541Y-103986872D01*
X129477077Y-104194414D01*
X130016164Y-104195759D01*
X130514730Y-103990702D01*
X130520459Y-103986872D01*
X130627476Y-103789318D01*
X129750000Y-102911842D01*
X128872524Y-103789318D01*
X94430600Y-103789318D01*
X94430600Y-103106164D01*
X128394241Y-103106164D01*
X128599298Y-103604730D01*
X128603128Y-103610459D01*
X128800682Y-103717476D01*
X129678158Y-102840000D01*
X129821842Y-102840000D01*
X130699318Y-103717476D01*
X130767278Y-103680661D01*
X132478121Y-103680661D01*
X132566880Y-103862644D01*
X133010234Y-104045207D01*
X133489703Y-104044209D01*
X133928040Y-103862644D01*
X134016799Y-103680661D01*
X133247460Y-102911322D01*
X132478121Y-103680661D01*
X130767278Y-103680661D01*
X130896872Y-103610459D01*
X131104414Y-103112923D01*
X131105688Y-102602254D01*
X132041733Y-102602254D01*
X132042731Y-103081723D01*
X132224296Y-103520060D01*
X132406279Y-103608819D01*
X133175618Y-102839480D01*
X133319302Y-102839480D01*
X134088641Y-103608819D01*
X134270624Y-103520060D01*
X134453187Y-103076706D01*
X134452189Y-102597237D01*
X134270624Y-102158900D01*
X134088641Y-102070141D01*
X133319302Y-102839480D01*
X133175618Y-102839480D01*
X132406279Y-102070141D01*
X132224296Y-102158900D01*
X132041733Y-102602254D01*
X131105688Y-102602254D01*
X131105759Y-102573836D01*
X130900702Y-102075270D01*
X130896872Y-102069541D01*
X130765359Y-101998299D01*
X132478121Y-101998299D01*
X133247460Y-102767638D01*
X134016799Y-101998299D01*
X133928040Y-101816316D01*
X133484686Y-101633753D01*
X133005217Y-101634751D01*
X132566880Y-101816316D01*
X132478121Y-101998299D01*
X130765359Y-101998299D01*
X130699318Y-101962524D01*
X129821842Y-102840000D01*
X129678158Y-102840000D01*
X128800682Y-101962524D01*
X128603128Y-102069541D01*
X128395586Y-102567077D01*
X128394241Y-103106164D01*
X94430600Y-103106164D01*
X94430600Y-101890682D01*
X128872524Y-101890682D01*
X129750000Y-102768158D01*
X130627476Y-101890682D01*
X130520459Y-101693128D01*
X130022923Y-101485586D01*
X129483836Y-101484241D01*
X128985270Y-101689298D01*
X128979541Y-101693128D01*
X128872524Y-101890682D01*
X94430600Y-101890682D01*
X94430600Y-99483179D01*
X97588663Y-99483179D01*
X97659182Y-99649617D01*
X98048424Y-99807234D01*
X98468354Y-99803897D01*
X98840818Y-99649617D01*
X98911337Y-99483179D01*
X98250000Y-98821842D01*
X97588663Y-99483179D01*
X94430600Y-99483179D01*
X94430600Y-98548424D01*
X97192766Y-98548424D01*
X97196103Y-98968354D01*
X97350383Y-99340818D01*
X97516821Y-99411337D01*
X98178158Y-98750000D01*
X98321842Y-98750000D01*
X98983179Y-99411337D01*
X99149617Y-99340818D01*
X99307234Y-98951576D01*
X99303897Y-98531646D01*
X99149617Y-98159182D01*
X98983179Y-98088663D01*
X98321842Y-98750000D01*
X98178158Y-98750000D01*
X97516821Y-98088663D01*
X97350383Y-98159182D01*
X97192766Y-98548424D01*
X94430600Y-98548424D01*
X94430600Y-98016821D01*
X97588663Y-98016821D01*
X98250000Y-98678158D01*
X98878158Y-98050000D01*
X102187434Y-98050000D01*
X102187434Y-99450000D01*
X102212230Y-99581777D01*
X102290110Y-99702807D01*
X102408942Y-99784001D01*
X102550000Y-99812566D01*
X103950000Y-99812566D01*
X104081777Y-99787770D01*
X104202807Y-99709890D01*
X104284001Y-99591058D01*
X104301307Y-99505600D01*
X105640484Y-99505600D01*
X105640484Y-99999490D01*
X105665280Y-100131267D01*
X105743160Y-100252297D01*
X105861992Y-100333491D01*
X106003050Y-100362056D01*
X108002030Y-100362056D01*
X108133807Y-100337260D01*
X108254837Y-100259380D01*
X108336031Y-100140548D01*
X108364596Y-99999490D01*
X108364596Y-99755600D01*
X109640484Y-99755600D01*
X109640484Y-99999490D01*
X109665280Y-100131267D01*
X109743160Y-100252297D01*
X109861992Y-100333491D01*
X110003050Y-100362056D01*
X112002030Y-100362056D01*
X112133807Y-100337260D01*
X112254837Y-100259380D01*
X112336031Y-100140548D01*
X112364596Y-99999490D01*
X112364596Y-99755600D01*
X113750000Y-99755600D01*
X114039156Y-99698083D01*
X114284290Y-99534290D01*
X115522980Y-98295600D01*
X116147606Y-98295600D01*
X116222970Y-98408391D01*
X116621391Y-98674607D01*
X117091361Y-98768090D01*
X117908639Y-98768090D01*
X118378609Y-98674607D01*
X118777030Y-98408391D01*
X118852394Y-98295600D01*
X120736700Y-98295600D01*
X122975390Y-100534290D01*
X123220524Y-100698083D01*
X123509680Y-100755600D01*
X125635404Y-100755600D01*
X125635404Y-100999490D01*
X125660200Y-101131267D01*
X125738080Y-101252297D01*
X125856912Y-101333491D01*
X125997970Y-101362056D01*
X127996950Y-101362056D01*
X128128727Y-101337260D01*
X128249757Y-101259380D01*
X128330951Y-101140548D01*
X128359516Y-100999490D01*
X128359516Y-99000510D01*
X128334720Y-98868733D01*
X128256840Y-98747703D01*
X128138008Y-98666509D01*
X127996950Y-98637944D01*
X125997970Y-98637944D01*
X125866193Y-98662740D01*
X125745163Y-98740620D01*
X125663969Y-98859452D01*
X125635404Y-99000510D01*
X125635404Y-99244400D01*
X123822660Y-99244400D01*
X121583970Y-97005710D01*
X121338836Y-96841917D01*
X121049680Y-96784400D01*
X118852394Y-96784400D01*
X118777030Y-96671609D01*
X118378609Y-96405393D01*
X117908639Y-96311910D01*
X117091361Y-96311910D01*
X116621391Y-96405393D01*
X116222970Y-96671609D01*
X116147606Y-96784400D01*
X115210000Y-96784400D01*
X114920845Y-96841916D01*
X114675710Y-97005710D01*
X113437020Y-98244400D01*
X112364596Y-98244400D01*
X112364596Y-98000510D01*
X112339800Y-97868733D01*
X112261920Y-97747703D01*
X112143088Y-97666509D01*
X112002030Y-97637944D01*
X110003050Y-97637944D01*
X109871273Y-97662740D01*
X109750243Y-97740620D01*
X109669049Y-97859452D01*
X109640484Y-98000510D01*
X109640484Y-98244400D01*
X108364596Y-98244400D01*
X108364596Y-98000510D01*
X108339800Y-97868733D01*
X108261920Y-97747703D01*
X108143088Y-97666509D01*
X108002030Y-97637944D01*
X107758140Y-97637944D01*
X107758140Y-95242325D01*
X115918839Y-95242325D01*
X115968859Y-95423522D01*
X116218870Y-95833367D01*
X116606691Y-96116340D01*
X117073280Y-96229360D01*
X117449200Y-96229360D01*
X117449200Y-95050800D01*
X117550800Y-95050800D01*
X117550800Y-96229360D01*
X117926720Y-96229360D01*
X118393309Y-96116340D01*
X118781130Y-95833367D01*
X119031141Y-95423522D01*
X119081161Y-95242325D01*
X119015248Y-95050800D01*
X117550800Y-95050800D01*
X117449200Y-95050800D01*
X115984752Y-95050800D01*
X115918839Y-95242325D01*
X107758140Y-95242325D01*
X107758140Y-94757675D01*
X115918839Y-94757675D01*
X115984752Y-94949200D01*
X117449200Y-94949200D01*
X117449200Y-93770640D01*
X117550800Y-93770640D01*
X117550800Y-94949200D01*
X119015248Y-94949200D01*
X119081161Y-94757675D01*
X119031141Y-94576478D01*
X118781130Y-94166633D01*
X118393309Y-93883660D01*
X117926720Y-93770640D01*
X117550800Y-93770640D01*
X117449200Y-93770640D01*
X117073280Y-93770640D01*
X116606691Y-93883660D01*
X116218870Y-94166633D01*
X115968859Y-94576478D01*
X115918839Y-94757675D01*
X107758140Y-94757675D01*
X107758140Y-92460000D01*
X115863271Y-92460000D01*
X115956850Y-92930456D01*
X116223342Y-93329289D01*
X116622175Y-93595781D01*
X117092631Y-93689360D01*
X117907369Y-93689360D01*
X118377825Y-93595781D01*
X118776658Y-93329289D01*
X118852623Y-93215600D01*
X122740000Y-93215600D01*
X123029156Y-93158083D01*
X123274290Y-92994290D01*
X125672980Y-90595600D01*
X125843458Y-90595600D01*
X125848001Y-90606594D01*
X126228861Y-90988120D01*
X126241860Y-90993518D01*
X126241860Y-93247460D01*
X126299377Y-93536616D01*
X126338910Y-93595781D01*
X126463170Y-93781750D01*
X135149708Y-102468288D01*
X135145146Y-102479273D01*
X135144675Y-103018362D01*
X135350541Y-103516594D01*
X135731401Y-103898120D01*
X135744400Y-103903518D01*
X135744400Y-108250000D01*
X135801917Y-108539156D01*
X135965710Y-108784290D01*
X139615390Y-112433970D01*
X139860524Y-112597763D01*
X140149680Y-112655280D01*
X140460293Y-112655280D01*
X140548858Y-112787827D01*
X140956343Y-113060100D01*
X141437005Y-113155710D01*
X142402995Y-113155710D01*
X142883657Y-113060100D01*
X143291142Y-112787827D01*
X143563415Y-112380342D01*
X143659025Y-111899680D01*
X143563415Y-111419018D01*
X143291142Y-111011533D01*
X142883657Y-110739260D01*
X142402995Y-110643650D01*
X141437005Y-110643650D01*
X140956343Y-110739260D01*
X140548858Y-111011533D01*
X140461241Y-111142661D01*
X139519000Y-110200420D01*
X145260975Y-110200420D01*
X145356585Y-110681082D01*
X145628858Y-111088567D01*
X146036343Y-111360840D01*
X146517005Y-111456450D01*
X147482995Y-111456450D01*
X147963657Y-111360840D01*
X148371142Y-111088567D01*
X148643415Y-110681082D01*
X148739025Y-110200420D01*
X148643415Y-109719758D01*
X148371142Y-109312273D01*
X147963657Y-109040000D01*
X147482995Y-108944390D01*
X146517005Y-108944390D01*
X146036343Y-109040000D01*
X145628858Y-109312273D01*
X145356585Y-109719758D01*
X145260975Y-110200420D01*
X139519000Y-110200420D01*
X137819740Y-108501160D01*
X140180975Y-108501160D01*
X140276585Y-108981822D01*
X140548858Y-109389307D01*
X140956343Y-109661580D01*
X141437005Y-109757190D01*
X142402995Y-109757190D01*
X142883657Y-109661580D01*
X143291142Y-109389307D01*
X143563415Y-108981822D01*
X143659025Y-108501160D01*
X143563415Y-108020498D01*
X143291142Y-107613013D01*
X142883657Y-107340740D01*
X142402995Y-107245130D01*
X141437005Y-107245130D01*
X140956343Y-107340740D01*
X140548858Y-107613013D01*
X140276585Y-108020498D01*
X140180975Y-108501160D01*
X137819740Y-108501160D01*
X137255600Y-107937020D01*
X137255600Y-104871859D01*
X149499240Y-104871859D01*
X149937925Y-105933557D01*
X150749511Y-106746560D01*
X151810441Y-107187097D01*
X152959199Y-107188100D01*
X154020897Y-106749415D01*
X154833900Y-105937829D01*
X155274437Y-104876899D01*
X155275440Y-103728141D01*
X154836755Y-102666443D01*
X154025169Y-101853440D01*
X152964239Y-101412903D01*
X151815481Y-101411900D01*
X150753783Y-101850585D01*
X149940780Y-102662171D01*
X149500243Y-103723101D01*
X149499240Y-104871859D01*
X137255600Y-104871859D01*
X137255600Y-103904002D01*
X137266594Y-103899459D01*
X137648120Y-103518599D01*
X137854854Y-103020727D01*
X137855325Y-102481638D01*
X137649459Y-101983406D01*
X137268599Y-101601880D01*
X136770727Y-101395146D01*
X136231638Y-101394675D01*
X136218630Y-101400050D01*
X130551759Y-95733179D01*
X133338663Y-95733179D01*
X133409182Y-95899617D01*
X133798424Y-96057234D01*
X134218354Y-96053897D01*
X134590818Y-95899617D01*
X134661337Y-95733179D01*
X134000000Y-95071842D01*
X133338663Y-95733179D01*
X130551759Y-95733179D01*
X129617004Y-94798424D01*
X132942766Y-94798424D01*
X132946103Y-95218354D01*
X133100383Y-95590818D01*
X133266821Y-95661337D01*
X133928158Y-95000000D01*
X134071842Y-95000000D01*
X134733179Y-95661337D01*
X134899617Y-95590818D01*
X135057234Y-95201576D01*
X135053897Y-94781646D01*
X134899617Y-94409182D01*
X134733179Y-94338663D01*
X134071842Y-95000000D01*
X133928158Y-95000000D01*
X133266821Y-94338663D01*
X133100383Y-94409182D01*
X132942766Y-94798424D01*
X129617004Y-94798424D01*
X129085401Y-94266821D01*
X133338663Y-94266821D01*
X134000000Y-94928158D01*
X134661337Y-94266821D01*
X134590818Y-94100383D01*
X134201576Y-93942766D01*
X133781646Y-93946103D01*
X133409182Y-94100383D01*
X133338663Y-94266821D01*
X129085401Y-94266821D01*
X127753060Y-92934480D01*
X127753060Y-90994002D01*
X127764054Y-90989459D01*
X128145580Y-90608599D01*
X128150978Y-90595600D01*
X132937434Y-90595600D01*
X132937434Y-90700000D01*
X132962230Y-90831777D01*
X133040110Y-90952807D01*
X133158942Y-91034001D01*
X133300000Y-91062566D01*
X134700000Y-91062566D01*
X134831777Y-91037770D01*
X134952807Y-90959890D01*
X135034001Y-90841058D01*
X135051307Y-90755600D01*
X137200000Y-90755600D01*
X137489156Y-90698083D01*
X137734290Y-90534290D01*
X139012980Y-89255600D01*
X142888488Y-89255600D01*
X142912230Y-89381777D01*
X142990110Y-89502807D01*
X143108942Y-89584001D01*
X143250000Y-89612566D01*
X144750000Y-89612566D01*
X144881777Y-89587770D01*
X145002807Y-89509890D01*
X145084001Y-89391058D01*
X145112566Y-89250000D01*
X145112566Y-88456014D01*
X147724290Y-85844290D01*
X147888084Y-85599155D01*
X147945601Y-85310000D01*
X147945600Y-85309995D01*
X147945600Y-76362056D01*
X148189490Y-76362056D01*
X148321267Y-76337260D01*
X148442297Y-76259380D01*
X148523491Y-76140548D01*
X148552056Y-75999490D01*
X148552056Y-75628587D01*
X148604617Y-75754847D01*
X148979149Y-76128053D01*
X149467991Y-76329523D01*
X149679200Y-76265242D01*
X149679200Y-75050800D01*
X149780800Y-75050800D01*
X149780800Y-76265242D01*
X149992009Y-76329523D01*
X150480851Y-76128053D01*
X150855383Y-75754847D01*
X151000000Y-75407455D01*
X151144617Y-75754847D01*
X151519149Y-76128053D01*
X152007991Y-76329523D01*
X152219200Y-76265242D01*
X152219200Y-75050800D01*
X151004829Y-75050800D01*
X151000000Y-75066650D01*
X150995171Y-75050800D01*
X149780800Y-75050800D01*
X149679200Y-75050800D01*
X149659200Y-75050800D01*
X149659200Y-74949200D01*
X149679200Y-74949200D01*
X149679200Y-73734758D01*
X149780800Y-73734758D01*
X149780800Y-74949200D01*
X150995171Y-74949200D01*
X151000000Y-74933350D01*
X151004829Y-74949200D01*
X152219200Y-74949200D01*
X152219200Y-73734758D01*
X152320800Y-73734758D01*
X152320800Y-74949200D01*
X152340800Y-74949200D01*
X152340800Y-75050800D01*
X152320800Y-75050800D01*
X152320800Y-76265242D01*
X152532009Y-76329523D01*
X153020851Y-76128053D01*
X153395383Y-75754847D01*
X153519300Y-75457178D01*
X153531512Y-75518570D01*
X153825259Y-75958193D01*
X154054400Y-76111300D01*
X154054400Y-85310000D01*
X154111917Y-85599156D01*
X154275710Y-85844290D01*
X156894431Y-88463011D01*
X156894208Y-88718953D01*
X157062171Y-89125454D01*
X157372910Y-89436736D01*
X157779118Y-89605408D01*
X158218953Y-89605792D01*
X158625454Y-89437829D01*
X158936736Y-89127090D01*
X159105408Y-88720882D01*
X159105792Y-88281047D01*
X158937829Y-87874546D01*
X158627090Y-87563264D01*
X158220882Y-87394592D01*
X157962947Y-87394367D01*
X155565600Y-84997020D01*
X155565600Y-83639700D01*
X156894400Y-83639700D01*
X156894400Y-84320733D01*
X156948537Y-84451431D01*
X157048569Y-84551463D01*
X157179267Y-84605600D01*
X157860300Y-84605600D01*
X157949200Y-84516700D01*
X157949200Y-83550800D01*
X158050800Y-83550800D01*
X158050800Y-84516700D01*
X158139700Y-84605600D01*
X158820733Y-84605600D01*
X158951431Y-84551463D01*
X159051463Y-84451431D01*
X159105600Y-84320733D01*
X159105600Y-83639700D01*
X159016700Y-83550800D01*
X158050800Y-83550800D01*
X157949200Y-83550800D01*
X156983300Y-83550800D01*
X156894400Y-83639700D01*
X155565600Y-83639700D01*
X155565600Y-82679267D01*
X156894400Y-82679267D01*
X156894400Y-83360300D01*
X156983300Y-83449200D01*
X157949200Y-83449200D01*
X157949200Y-82483300D01*
X158050800Y-82483300D01*
X158050800Y-83449200D01*
X159016700Y-83449200D01*
X159105600Y-83360300D01*
X159105600Y-82679267D01*
X159051463Y-82548569D01*
X158951431Y-82448537D01*
X158820733Y-82394400D01*
X158139700Y-82394400D01*
X158050800Y-82483300D01*
X157949200Y-82483300D01*
X157860300Y-82394400D01*
X157179267Y-82394400D01*
X157048569Y-82448537D01*
X156948537Y-82548569D01*
X156894400Y-82679267D01*
X155565600Y-82679267D01*
X155565600Y-77724350D01*
X172341766Y-77724350D01*
X172897429Y-79069157D01*
X173925431Y-80098955D01*
X175269266Y-80656964D01*
X176724350Y-80658234D01*
X178069157Y-80102571D01*
X179098955Y-79074569D01*
X179656964Y-77730734D01*
X179658234Y-76275650D01*
X179102571Y-74930843D01*
X178074569Y-73901045D01*
X176730734Y-73343036D01*
X175275650Y-73341766D01*
X173930843Y-73897429D01*
X172901045Y-74925431D01*
X172343036Y-76269266D01*
X172341766Y-77724350D01*
X155565600Y-77724350D01*
X155565600Y-76111300D01*
X155794741Y-75958193D01*
X156088488Y-75518570D01*
X156191638Y-75000000D01*
X156088488Y-74481430D01*
X155794741Y-74041807D01*
X155355118Y-73748060D01*
X154836548Y-73644910D01*
X154783452Y-73644910D01*
X154264882Y-73748060D01*
X153825259Y-74041807D01*
X153531512Y-74481430D01*
X153519300Y-74542822D01*
X153395383Y-74245153D01*
X153020851Y-73871947D01*
X152532009Y-73670477D01*
X152320800Y-73734758D01*
X152219200Y-73734758D01*
X152007991Y-73670477D01*
X151519149Y-73871947D01*
X151144617Y-74245153D01*
X151000000Y-74592545D01*
X150855383Y-74245153D01*
X150480851Y-73871947D01*
X149992009Y-73670477D01*
X149780800Y-73734758D01*
X149679200Y-73734758D01*
X149467991Y-73670477D01*
X148979149Y-73871947D01*
X148604617Y-74245153D01*
X148552056Y-74371413D01*
X148552056Y-74000510D01*
X148527260Y-73868733D01*
X148449380Y-73747703D01*
X148330548Y-73666509D01*
X148189490Y-73637944D01*
X146190510Y-73637944D01*
X146058733Y-73662740D01*
X145937703Y-73740620D01*
X145856509Y-73859452D01*
X145827944Y-74000510D01*
X145827944Y-75999490D01*
X145852740Y-76131267D01*
X145930620Y-76252297D01*
X146049452Y-76333491D01*
X146190510Y-76362056D01*
X146434400Y-76362056D01*
X146434400Y-84997020D01*
X144043986Y-87387434D01*
X143250000Y-87387434D01*
X143118223Y-87412230D01*
X142997193Y-87490110D01*
X142915999Y-87608942D01*
X142888568Y-87744400D01*
X138700000Y-87744400D01*
X138410844Y-87801917D01*
X138302147Y-87874546D01*
X138165710Y-87965710D01*
X136887020Y-89244400D01*
X135052104Y-89244400D01*
X135037770Y-89168223D01*
X134959890Y-89047193D01*
X134841058Y-88965999D01*
X134753060Y-88948179D01*
X134753060Y-88362056D01*
X134996950Y-88362056D01*
X135128727Y-88337260D01*
X135249757Y-88259380D01*
X135330951Y-88140548D01*
X135359516Y-87999490D01*
X135359516Y-86000510D01*
X135334720Y-85868733D01*
X135256840Y-85747703D01*
X135138008Y-85666509D01*
X134996950Y-85637944D01*
X132997970Y-85637944D01*
X132866193Y-85662740D01*
X132745163Y-85740620D01*
X132663969Y-85859452D01*
X132635404Y-86000510D01*
X132635404Y-87999490D01*
X132660200Y-88131267D01*
X132738080Y-88252297D01*
X132856912Y-88333491D01*
X132997970Y-88362056D01*
X133241860Y-88362056D01*
X133241860Y-88948374D01*
X133168223Y-88962230D01*
X133047193Y-89040110D01*
X133016931Y-89084400D01*
X128151462Y-89084400D01*
X128146919Y-89073406D01*
X127766059Y-88691880D01*
X127268187Y-88485146D01*
X126729098Y-88484675D01*
X126230866Y-88690541D01*
X125849340Y-89071401D01*
X125843942Y-89084400D01*
X125360000Y-89084400D01*
X125070845Y-89141916D01*
X124825710Y-89305710D01*
X122427020Y-91704400D01*
X118852623Y-91704400D01*
X118776658Y-91590711D01*
X118377825Y-91324219D01*
X117907369Y-91230640D01*
X117092631Y-91230640D01*
X116622175Y-91324219D01*
X116223342Y-91590711D01*
X115956850Y-91989544D01*
X115863271Y-92460000D01*
X107758140Y-92460000D01*
X107758140Y-91002085D01*
X107834001Y-90891058D01*
X107862566Y-90750000D01*
X107862566Y-89250000D01*
X107837770Y-89118223D01*
X107759890Y-88997193D01*
X107641058Y-88915999D01*
X107500000Y-88887434D01*
X106000000Y-88887434D01*
X105868223Y-88912230D01*
X105747193Y-88990110D01*
X105665999Y-89108942D01*
X105637434Y-89250000D01*
X105637434Y-90750000D01*
X105662230Y-90881777D01*
X105740110Y-91002807D01*
X105858942Y-91084001D01*
X106000000Y-91112566D01*
X106246940Y-91112566D01*
X106246940Y-97637944D01*
X106003050Y-97637944D01*
X105871273Y-97662740D01*
X105750243Y-97740620D01*
X105669049Y-97859452D01*
X105641721Y-97994400D01*
X104302104Y-97994400D01*
X104287770Y-97918223D01*
X104209890Y-97797193D01*
X104091058Y-97715999D01*
X103950000Y-97687434D01*
X102550000Y-97687434D01*
X102418223Y-97712230D01*
X102297193Y-97790110D01*
X102215999Y-97908942D01*
X102187434Y-98050000D01*
X98878158Y-98050000D01*
X98911337Y-98016821D01*
X98840818Y-97850383D01*
X98451576Y-97692766D01*
X98031646Y-97696103D01*
X97659182Y-97850383D01*
X97588663Y-98016821D01*
X94430600Y-98016821D01*
X94430600Y-85769273D01*
X106052569Y-85769273D01*
X106129184Y-85940906D01*
X106536510Y-86106860D01*
X106976338Y-86104304D01*
X107370816Y-85940906D01*
X107447431Y-85769273D01*
X106750000Y-85071842D01*
X106052569Y-85769273D01*
X94430600Y-85769273D01*
X94430600Y-84786510D01*
X105643140Y-84786510D01*
X105645696Y-85226338D01*
X105809094Y-85620816D01*
X105980727Y-85697431D01*
X106678158Y-85000000D01*
X106821842Y-85000000D01*
X107519273Y-85697431D01*
X107690906Y-85620816D01*
X107856860Y-85213490D01*
X107854304Y-84773662D01*
X107690906Y-84379184D01*
X107519273Y-84302569D01*
X106821842Y-85000000D01*
X106678158Y-85000000D01*
X105980727Y-84302569D01*
X105809094Y-84379184D01*
X105643140Y-84786510D01*
X94430600Y-84786510D01*
X94430600Y-84230727D01*
X106052569Y-84230727D01*
X106750000Y-84928158D01*
X107447431Y-84230727D01*
X107370816Y-84059094D01*
X106963490Y-83893140D01*
X106523662Y-83895696D01*
X106129184Y-84059094D01*
X106052569Y-84230727D01*
X94430600Y-84230727D01*
X94430600Y-82766552D01*
X118636242Y-82766552D01*
X118994143Y-83632739D01*
X119656276Y-84296028D01*
X120521837Y-84655440D01*
X121459052Y-84656258D01*
X122325239Y-84298357D01*
X122354373Y-84269273D01*
X143302569Y-84269273D01*
X143379184Y-84440906D01*
X143786510Y-84606860D01*
X144226338Y-84604304D01*
X144620816Y-84440906D01*
X144697431Y-84269273D01*
X144000000Y-83571842D01*
X143302569Y-84269273D01*
X122354373Y-84269273D01*
X122988528Y-83636224D01*
X123133741Y-83286510D01*
X142893140Y-83286510D01*
X142895696Y-83726338D01*
X143059094Y-84120816D01*
X143230727Y-84197431D01*
X143928158Y-83500000D01*
X144071842Y-83500000D01*
X144769273Y-84197431D01*
X144940906Y-84120816D01*
X145106860Y-83713490D01*
X145104304Y-83273662D01*
X144940906Y-82879184D01*
X144769273Y-82802569D01*
X144071842Y-83500000D01*
X143928158Y-83500000D01*
X143230727Y-82802569D01*
X143059094Y-82879184D01*
X142893140Y-83286510D01*
X123133741Y-83286510D01*
X123347940Y-82770663D01*
X123347974Y-82730727D01*
X143302569Y-82730727D01*
X144000000Y-83428158D01*
X144697431Y-82730727D01*
X144620816Y-82559094D01*
X144213490Y-82393140D01*
X143773662Y-82395696D01*
X143379184Y-82559094D01*
X143302569Y-82730727D01*
X123347974Y-82730727D01*
X123348758Y-81833448D01*
X122990857Y-80967261D01*
X122328724Y-80303972D01*
X121463163Y-79944560D01*
X120525948Y-79943742D01*
X119659761Y-80301643D01*
X118996472Y-80963776D01*
X118637060Y-81829337D01*
X118636242Y-82766552D01*
X94430600Y-82766552D01*
X94430600Y-77724350D01*
X96341766Y-77724350D01*
X96897429Y-79069157D01*
X97925431Y-80098955D01*
X99269266Y-80656964D01*
X100724350Y-80658234D01*
X102069157Y-80102571D01*
X103098955Y-79074569D01*
X103632637Y-77789318D01*
X133119984Y-77789318D01*
X133227001Y-77986872D01*
X133724537Y-78194414D01*
X134263624Y-78195759D01*
X134762190Y-77990702D01*
X134767919Y-77986872D01*
X134874936Y-77789318D01*
X133997460Y-76911842D01*
X133119984Y-77789318D01*
X103632637Y-77789318D01*
X103656964Y-77730734D01*
X103657509Y-77106164D01*
X132641701Y-77106164D01*
X132846758Y-77604730D01*
X132850588Y-77610459D01*
X133048142Y-77717476D01*
X133925618Y-76840000D01*
X134069302Y-76840000D01*
X134946778Y-77717476D01*
X135144332Y-77610459D01*
X135351874Y-77112923D01*
X135353219Y-76573836D01*
X135148162Y-76075270D01*
X135144332Y-76069541D01*
X134946778Y-75962524D01*
X134069302Y-76840000D01*
X133925618Y-76840000D01*
X133048142Y-75962524D01*
X132850588Y-76069541D01*
X132643046Y-76567077D01*
X132641701Y-77106164D01*
X103657509Y-77106164D01*
X103658234Y-76275650D01*
X103499169Y-75890682D01*
X133119984Y-75890682D01*
X133997460Y-76768158D01*
X134874936Y-75890682D01*
X134767919Y-75693128D01*
X134270383Y-75485586D01*
X133731296Y-75484241D01*
X133232730Y-75689298D01*
X133227001Y-75693128D01*
X133119984Y-75890682D01*
X103499169Y-75890682D01*
X103102571Y-74930843D01*
X102074569Y-73901045D01*
X100730734Y-73343036D01*
X99275650Y-73341766D01*
X97930843Y-73897429D01*
X96901045Y-74925431D01*
X96343036Y-76269266D01*
X96341766Y-77724350D01*
X94430600Y-77724350D01*
X94430600Y-71430600D01*
X181569400Y-71430600D01*
X181569400Y-151569400D01*
M02*
