M48
INCH,TZ
T1C0.028
T2C0.028
T3C0.031
T4C0.032
T5C0.035
T6C0.039
T7C0.043
T8C0.047
T9C0.049
T10C0.050
T11C0.108
T12C0.114
T13C0.125
%
G90
G05
T1
X51280Y-48720
X52067Y-48720
X53150Y-56693
X53937Y-56693
X60236Y-56693
X61024Y-56693
T2
X52460Y-40488
X52460Y-44488
T3
X42028Y-33465
X42028Y-35433
X42028Y-52362
X42028Y-54331
X56693Y-32874
X56693Y-34843
X62205Y-32874
X62205Y-34843
T4
X51022Y-46260
X52022Y-45510
X52022Y-47010
T5
X38681Y-38878
X38681Y-49409
X40650Y-38878
X40650Y-49409
X52756Y-35433
X52756Y-37402
X53248Y-51476
X53248Y-53445
X69685Y-39764
X69685Y-41732
X70079Y-48819
X70079Y-50787
T6
X42127Y-38976
X42127Y-44094
X43702Y-38976
X43702Y-44094
X49999Y-39370
X50001Y-50394
X51083Y-40488
X51083Y-44488
X51377Y-54429
X52755Y-34252
X53740Y-40453
X53740Y-44453
X53740Y-45705
X53740Y-49705
X65650Y-38386
X65748Y-39724
X65748Y-43724
X65748Y-45291
X65748Y-49291
X66079Y-51969
X67126Y-39701
X67126Y-43701
X67224Y-45276
X67224Y-49276
X69650Y-38386
X70079Y-51969
T7
X38976Y-43382
X38976Y-44382
X38976Y-45382
X38976Y-46382
X55587Y-56693
X56587Y-56693
X57587Y-56693
X57949Y-29528
X58587Y-56693
X58949Y-29528
X59949Y-29528
X60949Y-29528
X70079Y-43776
X70079Y-44776
X70079Y-45776
X70079Y-46776
T8
X46260Y-36402
X46260Y-37402
X46260Y-38402
X46358Y-51362
X46358Y-52362
X46358Y-53362
T9
X55874Y-42717
X55874Y-44055
X55874Y-45394
X55874Y-46732
X55874Y-48071
X55874Y-49409
X57874Y-43386
X57874Y-44724
X57874Y-46063
X57874Y-47402
X57874Y-48740
T10
X42127Y-42976
X42127Y-48094
X43702Y-42976
X43702Y-48094
X49999Y-35370
X50001Y-54394
X51377Y-50429
X52755Y-30252
T11
X47635Y-32402
X47635Y-42402
X47733Y-47362
X47733Y-57362
T12
X59995Y-41063
X59995Y-51063
T13
X39370Y-30315
X39370Y-57480
X69291Y-30315
X69291Y-57480
T0
M30
